<svg width="123" height="43" viewBox="0 0 123 43" version="1.1" xmlns="http://www.w3.org/2000/svg" xmlns:xlink="http://www.w3.org/1999/xlink">
<g id="Canvas" fill="none">
<g id="Group 4">
<g id="Arrow 2.1 (Stroke)">
<path fill-rule="evenodd" clip-rule="evenodd" d="M 12.8702 0.366117L 20.8252 8.32107C 21.3133 8.80922 21.3133 9.60068 20.8252 10.0888L 12.8702 18.0438C 12.382 18.5319 11.5906 18.5319 11.1024 18.0438C 10.6143 17.5556 10.6143 16.7642 11.1024 16.276L 16.9235 10.455L 1.25 10.455C 0.559644 10.455 0 9.89531 0 9.20495C 0 8.5146 0.559644 7.95495 1.25 7.95495L 16.9235 7.95495L 11.1024 2.13388C 10.6143 1.64573 10.6143 0.854272 11.1024 0.366117C 11.5906 -0.122039 12.382 -0.122039 12.8702 0.366117Z" transform="translate(43.5312 11.9043)" fill="black"/>
</g>
<g id="figma-1">
<g id="path0 fill">
<path d="M 7.17164 14.3333C 11.1304 14.3333 14.3433 11.1226 14.3433 7.16665L 14.3433 0L 7.17164 0C 3.2129 0 0 3.21066 0 7.16665C 0 11.1226 3.2129 14.3333 7.17164 14.3333Z" transform="translate(0 28.667)" fill="#24CE85"/>
</g>
<g id="path1 fill">
<path d="M 0 7.16665C 0 3.21066 3.2129 0 7.17164 0L 14.3433 0L 14.3433 14.3333L 7.17164 14.3333C 3.2129 14.3333 0 11.1226 0 7.16665Z" transform="translate(0 14.333)" fill="#A160FB"/>
</g>
<g id="path1 fill 1">
<path d="M 0 7.16665C 0 3.21066 3.2129 0 7.17164 0L 14.3433 0L 14.3433 14.3333L 7.17164 14.3333C 3.2129 14.3333 0 11.1226 0 7.16665Z" fill="#F34E1F"/>
</g>
<g id="path2 fill">
<path d="M 0 0L 7.17164 0C 11.1304 0 14.3433 3.21066 14.3433 7.16665C 14.3433 11.1226 11.1304 14.3333 7.17164 14.3333L 0 14.3333L 0 0Z" transform="translate(14.3433 0)" fill="#FF7162"/>
</g>
<g id="path3 fill">
<path d="M 14.3433 7.16665C 14.3433 11.1226 11.1304 14.3333 7.17164 14.3333C 3.2129 14.3333 0 11.1226 0 7.16665C 0 3.21066 3.2129 0 7.17164 0C 11.1304 0 14.3433 3.21066 14.3433 7.16665Z" transform="translate(14.3433 14.333)" fill="#2CBDFB"/>
</g>
</g>
<g id="Group">
<g id="Group_2">
<g id="Vector">
<path fill-rule="evenodd" clip-rule="evenodd" d="M 22.9682 0C 10.2672 0 0 9.85455 0 22.045C 0 31.79 6.57864 40.0387 15.7051 42.9585C 16.8459 43.1775 17.2642 42.4841 17.2642 41.9001C 17.2642 41.3891 17.2262 39.6372 17.2262 37.8123C 10.8377 39.1262 9.50671 35.1844 9.50671 35.1844C 8.47999 32.6295 6.95891 31.9725 6.95891 31.9725C 4.86744 30.6221 7.11102 30.6221 7.11102 30.6221C 9.43066 30.7681 10.6475 32.885 10.6475 32.885C 12.701 36.2428 16.0093 35.2939 17.3402 34.7099C 17.5304 33.2865 18.1388 32.301 18.7853 31.7535C 13.6897 31.2426 8.32788 29.3447 8.32788 20.877C 8.32788 18.4682 9.24052 16.4972 10.6855 14.9643C 10.4574 14.4168 9.65882 12.1539 10.9137 9.12458C 10.9137 9.12458 12.8531 8.54061 17.2262 11.3875C 19.0515 10.913 21.0288 10.6575 22.9682 10.6575C 24.9076 10.6575 26.885 10.913 28.7103 11.3875C 33.0834 8.54061 35.0227 9.12458 35.0227 9.12458C 36.2776 12.1539 35.479 14.4168 35.2509 14.9643C 36.7339 16.4972 37.6086 18.4682 37.6086 20.877C 37.6086 29.3447 32.2468 31.2061 27.1131 31.7535C 27.9497 32.447 28.6722 33.761 28.6722 35.8414C 28.6722 38.7977 28.6342 41.1701 28.6342 41.9001C 28.6342 42.4841 29.0525 43.1775 30.1933 42.9585C 39.3198 40.0387 45.8984 31.79 45.8984 22.045C 45.9364 9.85455 35.6312 0 22.9682 0Z" transform="translate(77.1016 0)" fill="#191717"/>
</g>
<g id="Vector_2">
<path d="M 0.59461 0.366461C 0.556583 0.475956 0.366449 0.512456 0.214342 0.439459C 0.0622346 0.366463 -0.051846 0.220469 0.0242077 0.110974C 0.0622346 0.00147885 0.252369 -0.0350184 0.404476 0.0379783C 0.556584 0.110975 0.632637 0.256966 0.59461 0.366461Z" transform="translate(85.2142 31.2776)" fill="#191717"/>
</g>
<g id="Vector_3">
<path d="M 0.598707 0.636694C 0.484627 0.746189 0.256466 0.673191 0.142385 0.527198C -0.00972206 0.381204 -0.0477492 0.162216 0.0663313 0.0527209C 0.180412 -0.0567741 0.370546 0.0162209 0.522654 0.162214C 0.674761 0.344706 0.712788 0.563697 0.598707 0.636694Z" transform="translate(86.1246 31.9929)" fill="#191717"/>
</g>
<g id="Vector_4">
<path d="M 0.60843 0.737155C 0.456322 0.84665 0.228161 0.737155 0.11408 0.554663C -0.038027 0.372172 -0.038027 0.116683 0.11408 0.0436862C 0.266188 -0.0658087 0.494349 0.0436863 0.60843 0.226178C 0.760537 0.40867 0.760537 0.62766 0.60843 0.737155Z" transform="translate(87.0266 33.1697)" fill="#191717"/>
</g>
<g id="Vector_5">
<path d="M 0.803427 0.710557C 0.689346 0.85655 0.423158 0.82005 0.194997 0.637559C 0.00486312 0.455067 -0.0711903 0.199579 0.0809171 0.0900839C 0.194998 -0.0559095 0.461186 -0.0194095 0.689347 0.163082C 0.879481 0.309075 0.917508 0.564564 0.803427 0.710557Z" transform="translate(88.0861 34.437)" fill="#191717"/>
</g>
<g id="Vector_6">
<path d="M 0.956454 0.465951C 0.918427 0.648443 0.652239 0.72144 0.386051 0.648443C 0.119863 0.575446 -0.0322444 0.356458 0.00578246 0.210464C 0.0438093 0.0279726 0.309997 -0.0450241 0.576185 0.0279726C 0.842373 0.100969 0.994481 0.28346 0.956454 0.465951Z" transform="translate(89.6429 35.3757)" fill="#191717"/>
</g>
<g id="Vector_7">
<path d="M 0.988699 0.328484C 0.988699 0.510976 0.760536 0.65697 0.494348 0.65697C 0.228161 0.65697 -2.90122e-07 0.510976 -2.90122e-07 0.328484C -2.90122e-07 0.145993 0.228161 -1.11384e-06 0.494348 -1.11384e-06C 0.760536 -1.11384e-06 0.988699 0.145993 0.988699 0.328484Z" transform="translate(91.4758 35.6589)" fill="#191717"/>
</g>
<g id="Vector_8">
<path d="M 0.955516 0.262483C 0.993543 0.444974 0.80341 0.627465 0.537222 0.663964C 0.271034 0.700462 0.0428721 0.590965 0.00484527 0.408474C -0.0331816 0.225982 0.156952 0.0434909 0.42314 0.00699259C 0.689328 -0.0295057 0.91749 0.0799909 0.955516 0.262483Z" transform="translate(93.2571 35.4329)" fill="#191717"/>
</g>
</g>
</g>
</g>
</g>
</svg>

