<svg width="249" height="335" viewBox="0 0 249 335" version="1.1" xmlns="http://www.w3.org/2000/svg" xmlns:xlink="http://www.w3.org/1999/xlink">
<g id="Canvas" fill="none">
<g id="Group 2">
<g id="Rectangle 11.18">
<rect width="249" height="87" rx="4" fill="#222222"/>
</g>
<g id="Rectangle 13">
<path d="M 0 0L 249 0L 249 259C 249 261.209 247.209 263 245 263L 4 263C 1.79086 263 0 261.209 0 259L 0 0Z" transform="translate(0 72)" fill="#E5E5E5"/>
</g>
<g id="Rectangle 16.17">
<rect width="34" height="34" transform="translate(20 96)" fill="white"/>
</g>
<g id="Rectangle 16.18">
<rect width="34" height="34" transform="translate(63 96)" fill="white"/>
</g>
<g id="Rectangle 16.19">
<rect width="34" height="34" transform="translate(106 96)" fill="white"/>
</g>
<g id="Rectangle 16.20">
<rect width="34" height="34" transform="translate(20 141)" fill="white"/>
</g>
<g id="Rectangle 16.21">
<rect width="34" height="34" transform="translate(63 141)" fill="white"/>
</g>
<g id="Rectangle 16.22">
<rect width="34" height="34" transform="translate(106 141)" fill="white"/>
</g>
<g id="Rectangle 16.23">
<rect width="34" height="34" transform="translate(20 186)" fill="white"/>
</g>
<g id="Rectangle 16.24">
<rect width="34" height="34" transform="translate(63 186)" fill="white"/>
</g>
<g id="Rectangle 16.25">
<rect width="34" height="34" transform="translate(106 186)" fill="white"/>
</g>
<g id="Rectangle 16.26">
<rect width="34" height="34" transform="translate(20 231)" fill="white"/>
</g>
<g id="Rectangle 16.27">
<rect width="34" height="34" transform="translate(63 231)" fill="white"/>
</g>
<g id="Rectangle 16.28">
<rect width="34" height="34" transform="translate(106 231)" fill="white"/>
</g>
<g id="Rectangle 16.14">
<rect width="34" height="34" transform="translate(20 276)" fill="white"/>
</g>
<g id="Rectangle 16.15">
<rect width="34" height="34" transform="translate(63 276)" fill="white"/>
</g>
<g id="Rectangle 16.16">
<rect width="34" height="34" transform="translate(106 276)" fill="white"/>
</g>
<g id="figma-1">
<g id="path0 fill">
<path d="M 5 10C 7.76 10 10 7.76 10 5L 10 0L 5 0C 2.24 0 0 2.24 0 5C 0 7.76 2.24 10 5 10Z" transform="translate(27 43)" fill="#24CE85"/>
</g>
<g id="path1 fill">
<path d="M 0 5C 0 2.24 2.24 0 5 0L 10 0L 10 10L 5 10C 2.24 10 0 7.76 0 5Z" transform="translate(27 33)" fill="#A160FB"/>
</g>
<g id="path1 fill 1">
<path d="M 0 5C 0 2.24 2.24 0 5 0L 10 0L 10 10L 5 10C 2.24 10 0 7.76 0 5Z" transform="translate(27 23)" fill="#F34E1F"/>
</g>
<g id="path2 fill">
<path d="M 0 0L 5 0C 7.76 0 10 2.24 10 5C 10 7.76 7.76 10 5 10L 0 10L 0 0Z" transform="translate(37 23)" fill="#FF7162"/>
</g>
<g id="path3 fill">
<path d="M 10 5C 10 7.76 7.76 10 5 10C 2.24 10 0 7.76 0 5C 0 2.24 2.24 0 5 0C 7.76 0 10 2.24 10 5Z" transform="translate(37 33)" fill="#2CBDFB"/>
</g>
</g>
<g id="Group">
<g id="Review">
<g id="Line 9 (Stroke)">
<path fill-rule="evenodd" clip-rule="evenodd" d="M 0 0.79898C 0 0.357715 0.357716 0 0.79898 0L 3.19296 0C 3.63422 0 3.99194 0.357715 3.99194 0.79898C 3.99194 1.24024 3.63422 1.59796 3.19296 1.59796L 0.79898 1.59796C 0.357716 1.59796 0 1.24024 0 0.79898Z" transform="matrix(0 -1 1 0 79.5752 284.435)" fill="black"/>
</g>
<g id="Line 9 (Stroke)_2">
<path fill-rule="evenodd" clip-rule="evenodd" d="M 0 0.79898C 0 0.357716 0.357716 0 0.79898 0L 3.1937 0C 3.63497 0 3.99268 0.357716 3.99268 0.79898C 3.99268 1.24024 3.63497 1.59796 3.1937 1.59796L 0.79898 1.59796C 0.357716 1.59796 0 1.24024 0 0.79898Z" transform="matrix(-0.355675 -0.93461 0.934964 -0.354743 74.7031 285.54)" fill="black"/>
</g>
<g id="Line 9 (Stroke)_3">
<path fill-rule="evenodd" clip-rule="evenodd" d="M 0 0.79898C 0 0.357716 0.357716 0 0.79898 0L 3.19517 0C 3.63644 0 3.99415 0.357716 3.99415 0.79898C 3.99415 1.24025 3.63644 1.59796 3.19517 1.59796L 0.79898 1.59796C 0.357716 1.59796 0 1.24025 0 0.79898Z" transform="matrix(-0.611532 -0.791219 0.792104 -0.610386 70.3564 288.571)" fill="black"/>
</g>
<g id="Line 9 (Stroke)_4">
<path fill-rule="evenodd" clip-rule="evenodd" d="M 0 0.79898C 0 0.357716 0.357716 0 0.79898 0L 3.1937 0C 3.63497 0 3.99268 0.357716 3.99268 0.79898C 3.99268 1.24024 3.63497 1.59796 3.1937 1.59796L 0.79898 1.59796C 0.357716 1.59796 0 1.24024 0 0.79898Z" transform="matrix(0.355672 -0.934611 -0.934963 -0.354746 86.0449 285.54)" fill="black"/>
</g>
<g id="Line 9 (Stroke)_5">
<path fill-rule="evenodd" clip-rule="evenodd" d="M 0 0.79898C 0 0.357716 0.357716 0 0.79898 0L 3.19517 0C 3.63644 0 3.99415 0.357716 3.99415 0.79898C 3.99415 1.24025 3.63644 1.59796 3.19517 1.59796L 0.79898 1.59796C 0.357716 1.59796 0 1.24025 0 0.79898Z" transform="matrix(0.611532 -0.791219 -0.792104 -0.610386 90.3916 288.571)" fill="black"/>
</g>
</g>
<g id="Delete">
<g id="Ellipse 12 (Stroke)">
<path fill-rule="evenodd" clip-rule="evenodd" d="M 10.3939 1.59796C 5.5349 1.59796 1.59796 5.53076 1.59796 10.3796C 1.59796 15.2285 5.5349 19.1613 10.3939 19.1613C 15.2528 19.1613 19.1898 15.2285 19.1898 10.3796C 19.1898 5.53076 15.2528 1.59796 10.3939 1.59796ZM 0 10.3796C 0 4.646 4.65461 0 10.3939 0C 16.1331 0 20.7877 4.646 20.7877 10.3796C 20.7877 16.1133 16.1331 20.7593 10.3939 20.7593C 4.65461 20.7593 0 16.1133 0 10.3796Z" transform="translate(113.359 282.04)" fill="black"/>
</g>
</g>
<g id="Restore">
<g id="Ellipse 14">
<path d="M 4.79744 2.39516C 4.79744 3.71797 3.7235 4.79032 2.39872 4.79032C 1.07394 4.79032 0 3.71797 0 2.39516C 0 1.07235 1.07394 0 2.39872 0C 3.7235 0 4.79744 1.07235 4.79744 2.39516Z" transform="translate(121.354 200.604)" fill="black"/>
</g>
</g>
<g id="Stop">
<g id="Rectangle 27">
<path d="M 0 0L 6.39659 0L 6.39659 6.3871L 0 6.3871L 0 0Z" transform="translate(77.1748 199.807)" fill="black"/>
</g>
</g>
<g id="Volume">
<g id="Ellipse 15 (Stroke)">
<path fill-rule="evenodd" clip-rule="evenodd" d="M 0 0.79898C 0 0.357716 0.357716 0 0.79898 0C 2.5639 0 3.99668 1.42895 3.99668 3.19414C 3.99668 4.95934 2.5639 6.38828 0.79898 6.38828C 0.357716 6.38828 0 6.03057 0 5.5893C 0 5.14804 0.357716 4.79032 0.79898 4.79032C 1.68361 4.79032 2.39872 4.07457 2.39872 3.19414C 2.39872 2.31371 1.68361 1.59796 0.79898 1.59796C 0.357716 1.59796 0 1.24024 0 0.79898Z" transform="translate(38.5938 155.895)" fill="black"/>
</g>
<g id="Ellipse 15 (Stroke)_2">
<path fill-rule="evenodd" clip-rule="evenodd" d="M 0 0.79898C 0 0.357716 0.357716 0 0.79898 0C 4.33027 0 7.19497 2.85875 7.19497 6.38769C 7.19497 9.91663 4.33027 12.7754 0.79898 12.7754C 0.357716 12.7754 0 12.4177 0 11.9764C 0 11.5351 0.357716 11.1774 0.79898 11.1774C 3.44998 11.1774 5.59701 9.03187 5.59701 6.38769C 5.59701 3.74351 3.44998 1.59796 0.79898 1.59796C 0.357716 1.59796 0 1.24024 0 0.79898Z" transform="translate(38.5938 152.701)" fill="black"/>
</g>
<g id="Ellipse 15 (Stroke)_3">
<path fill-rule="evenodd" clip-rule="evenodd" d="M 0 0.79898C 0 0.357716 0.357716 0 0.79898 0C 6.09664 0 10.3933 4.28855 10.3933 9.58124C 10.3933 14.8739 6.09664 19.1625 0.79898 19.1625C 0.357716 19.1625 0 18.8048 0 18.3635C 0 17.9222 0.357716 17.5645 0.79898 17.5645C 5.21635 17.5645 8.79531 13.9892 8.79531 9.58124C 8.79531 5.17331 5.21635 1.59796 0.79898 1.59796C 0.357716 1.59796 0 1.24024 0 0.79898Z" transform="translate(38.5947 149.507)" fill="black"/>
</g>
</g>
<g id="Volume_2">
<g id="Ellipse 15 (Stroke)_4">
<path fill-rule="evenodd" clip-rule="evenodd" d="M 0 0.79898C 0 0.357716 0.357716 0 0.79898 0C 2.5639 0 3.99668 1.42895 3.99668 3.19414C 3.99668 4.95934 2.5639 6.38828 0.79898 6.38828C 0.357716 6.38828 0 6.03057 0 5.5893C 0 5.14804 0.357716 4.79032 0.79898 4.79032C 1.68361 4.79032 2.39872 4.07457 2.39872 3.19414C 2.39872 2.31371 1.68361 1.59796 0.79898 1.59796C 0.357716 1.59796 0 1.24024 0 0.79898Z" transform="translate(40.5938 199.604)" fill="black"/>
</g>
</g>
<g id="Fast-Forward">
<g id="Vector 11">
<path d="M 0 6.3871L 0 0L 3.19829 3.19355L 0 6.3871Z" transform="translate(75.5762 244.516)" fill="black"/>
</g>
</g>
<g id="Settings">
<g id="Ellipse (Stroke)">
<path fill-rule="evenodd" clip-rule="evenodd" d="M 3.1977 1.59796C 2.31307 1.59796 1.59796 2.31371 1.59796 3.19414C 1.59796 4.07457 2.31307 4.79032 3.1977 4.79032C 4.08233 4.79032 4.79744 4.07457 4.79744 3.19414C 4.79744 2.31371 4.08233 1.59796 3.1977 1.59796ZM 0 3.19414C 0 1.42895 1.43278 0 3.1977 0C 4.96262 0 6.3954 1.42895 6.3954 3.19414C 6.3954 4.95934 4.96262 6.38828 3.1977 6.38828C 1.43278 6.38828 0 4.95934 0 3.19414Z" transform="translate(26.5996 103.201)" fill="black"/>
</g>
<g id="Line (Stroke)">
<path fill-rule="evenodd" clip-rule="evenodd" d="M 0 0.79898C 0 0.357715 0.357716 0 0.79898 0L 13.5933 0C 14.0346 0 14.3923 0.357715 14.3923 0.79898C 14.3923 1.24024 14.0346 1.59796 13.5933 1.59796L 0.79898 1.59796C 0.357716 1.59796 0 1.24024 0 0.79898Z" transform="translate(32.1953 105.596)" fill="black"/>
</g>
<g id="Ellipse (Stroke)_2">
<path fill-rule="evenodd" clip-rule="evenodd" d="M 3.1977 1.59796C 2.31307 1.59796 1.59796 2.31371 1.59796 3.19414C 1.59796 4.07457 2.31307 4.79032 3.1977 4.79032C 4.08233 4.79032 4.79744 4.07457 4.79744 3.19414C 4.79744 2.31371 4.08233 1.59796 3.1977 1.59796ZM 0 3.19414C 0 1.42895 1.43278 0 3.1977 0C 4.96262 0 6.3954 1.42895 6.3954 3.19414C 6.3954 4.95934 4.96262 6.38828 3.1977 6.38828C 1.43278 6.38828 0 4.95934 0 3.19414Z" transform="translate(30.5967 117.572)" fill="black"/>
</g>
<g id="Line (Stroke)_2">
<path fill-rule="evenodd" clip-rule="evenodd" d="M 0 0.79898C 0 0.357715 0.357716 0 0.79898 0L 9.59547 0C 10.0367 0 10.3945 0.357715 10.3945 0.79898C 10.3945 1.24024 10.0367 1.59796 9.59547 1.59796L 0.79898 1.59796C 0.357716 1.59796 0 1.24024 0 0.79898Z" transform="translate(36.1934 119.967)" fill="black"/>
</g>
<g id="Line (Stroke)_3">
<path fill-rule="evenodd" clip-rule="evenodd" d="M 0 0.79898C 0 0.357715 0.357716 0 0.79898 0L 4.79803 0C 5.2393 0 5.59701 0.357715 5.59701 0.79898C 5.59701 1.24024 5.2393 1.59796 4.79803 1.59796L 0.79898 1.59796C 0.357716 1.59796 0 1.24024 0 0.79898Z" transform="translate(26.5986 119.967)" fill="black"/>
</g>
<g id="Ellipse (Stroke)_3">
<path fill-rule="evenodd" clip-rule="evenodd" d="M 3.1977 1.59796C 2.31307 1.59796 1.59796 2.31371 1.59796 3.19414C 1.59796 4.07457 2.31307 4.79032 3.1977 4.79032C 4.08233 4.79032 4.79744 4.07457 4.79744 3.19414C 4.79744 2.31371 4.08233 1.59796 3.1977 1.59796ZM 0 3.19414C 0 1.42895 1.43278 0 3.1977 0C 4.96262 0 6.3954 1.42895 6.3954 3.19414C 6.3954 4.95934 4.96262 6.38828 3.1977 6.38828C 1.43278 6.38828 0 4.95934 0 3.19414Z" transform="translate(37.793 110.387)" fill="black"/>
</g>
<g id="Line (Stroke)_4">
<path fill-rule="evenodd" clip-rule="evenodd" d="M 0 0.79898C 0 0.357715 0.357716 0 0.79898 0L 11.9942 0C 12.4355 0 12.7932 0.357715 12.7932 0.79898C 12.7932 1.24024 12.4355 1.59796 11.9942 1.59796L 0.79898 1.59796C 0.357716 1.59796 0 1.24024 0 0.79898Z" transform="translate(26.5986 112.781)" fill="black"/>
</g>
<g id="Line (Stroke)_5">
<path fill-rule="evenodd" clip-rule="evenodd" d="M 0 0.79898C 0 0.357715 0.357716 0 0.79898 0L 3.19889 0C 3.64015 0 3.99787 0.357715 3.99787 0.79898C 3.99787 1.24024 3.64015 1.59796 3.19889 1.59796L 0.79898 1.59796C 0.357716 1.59796 0 1.24024 0 0.79898Z" transform="translate(43.3896 112.781)" fill="black"/>
</g>
</g>
<g id="Play">
<g id="Rectangle 7 (Stroke)">
<path fill-rule="evenodd" clip-rule="evenodd" d="M 20.7901 1.59796L 1.59796 1.59796L 1.59796 15.1682L 20.7901 15.1682L 20.7901 1.59796ZM 1.59796 0C 0.715431 0 0 0.715431 0 1.59796L 0 15.1682C 0 16.0507 0.715431 16.7661 1.59796 16.7661L 20.7901 16.7661C 21.6726 16.7661 22.3881 16.0507 22.3881 15.1682L 22.3881 1.59796C 22.3881 0.715431 21.6726 0 20.7901 0L 1.59796 0Z" transform="translate(69.1787 104)" fill="black"/>
</g>
<g id="Rectangle 7 (Stroke)_2">
<path fill-rule="evenodd" clip-rule="evenodd" d="M 2.0087 1.59796L 1.74257 3.19236L 12.3613 3.19236L 12.0952 1.59796L 2.0087 1.59796ZM 1.33203 0C 0.941529 0 0.608243 0.282267 0.543952 0.667439L 0.0111009 3.8598C -0.0701965 4.34686 0.305379 4.79032 0.799178 4.79032L 13.3047 4.79032C 13.7985 4.79032 14.1741 4.34686 14.0928 3.8598L 13.5599 0.667439C 13.4956 0.282267 13.1624 0 12.7719 0L 1.33203 0Z" transform="translate(73.3213 115.976)" fill="black"/>
</g>
<g id="Ellipse 5 (Stroke)">
<path fill-rule="evenodd" clip-rule="evenodd" d="M 3.19829 4.78914C 4.08437 4.78914 4.79863 4.07253 4.79863 3.19355C 4.79863 2.31457 4.08437 1.59796 3.19829 1.59796C 2.31222 1.59796 1.59796 2.31457 1.59796 3.19355C 1.59796 4.07253 2.31222 4.78914 3.19829 4.78914ZM 3.19829 6.3871C 4.96466 6.3871 6.39659 4.9573 6.39659 3.19355C 6.39659 1.4298 4.96466 0 3.19829 0C 1.43192 0 0 1.4298 0 3.19355C 0 4.9573 1.43192 6.3871 3.19829 6.3871Z" transform="translate(72.377 107.992)" fill="black"/>
</g>
<g id="Ellipse 5 (Stroke)_2">
<path fill-rule="evenodd" clip-rule="evenodd" d="M 3.19829 4.78914C 4.08437 4.78914 4.79863 4.07253 4.79863 3.19355C 4.79863 2.31457 4.08437 1.59796 3.19829 1.59796C 2.31222 1.59796 1.59796 2.31457 1.59796 3.19355C 1.59796 4.07253 2.31222 4.78914 3.19829 4.78914ZM 3.19829 6.3871C 4.96466 6.3871 6.39659 4.9573 6.39659 3.19355C 6.39659 1.4298 4.96466 0 3.19829 0C 1.43192 0 0 1.4298 0 3.19355C 0 4.9573 1.43192 6.3871 3.19829 6.3871Z" transform="translate(81.9727 107.992)" fill="black"/>
</g>
<g id="Rectangle 8 (Stroke)">
<path fill-rule="evenodd" clip-rule="evenodd" d="M 12.7979 1.59796L 3.19355 1.59796C 2.31233 1.59796 1.59796 2.31233 1.59796 3.19355C 1.59796 4.07477 2.31233 4.78914 3.19355 4.78914L 12.7979 4.78914C 13.6791 4.78914 14.3935 4.07477 14.3935 3.19355C 14.3935 2.31233 13.6791 1.59796 12.7979 1.59796ZM 3.19355 0C 1.4298 0 0 1.4298 0 3.19355C 0 4.9573 1.4298 6.3871 3.19355 6.3871L 12.7979 6.3871C 14.5617 6.3871 15.9915 4.9573 15.9915 3.19355C 15.9915 1.4298 14.5617 0 12.7979 0L 3.19355 0Z" transform="translate(72.377 107.992)" fill="black"/>
</g>
</g>
<g id="New Doc">
<g id="Rectangle 10 (Stroke)">
<path fill-rule="evenodd" clip-rule="evenodd" d="M 8.76973 3.05598L 8.76973 4.81409C 8.76973 5.25535 9.12744 5.61307 9.56871 5.61307L 11.3306 5.61307L 8.76973 3.05598ZM 7.97075 0L 14.3923 6.41205L 14.3923 15.9666C 14.3923 16.8491 13.6769 17.5645 12.7944 17.5645L 1.59796 17.5645C 0.715431 17.5645 0 16.8491 0 15.9666L 0 1.59796C 0 0.715431 0.715431 0 1.59796 0L 7.97075 0ZM 7.17177 1.59796L 1.59796 1.59796L 1.59796 15.9666L 12.7944 15.9666L 12.7944 7.21103L 9.56871 7.21103C 8.24491 7.21103 7.17177 6.13788 7.17177 4.81409L 7.17177 1.59796Z" transform="translate(116.557 104)" fill="black"/>
</g>
<g id="Line 4 (Stroke)">
<path fill-rule="evenodd" clip-rule="evenodd" d="M 0 0.79898C 0 0.357715 0.357716 0 0.79898 0L 2.39931 0C 2.84058 0 3.19829 0.357715 3.19829 0.79898C 3.19829 1.24024 2.84058 1.59796 2.39931 1.59796L 0.79898 1.59796C 0.357716 1.59796 0 1.24024 0 0.79898Z" transform="translate(119.755 109.587)" fill="black"/>
</g>
<g id="Line 4 (Stroke)_2">
<path fill-rule="evenodd" clip-rule="evenodd" d="M 0 0.79898C 0 0.357715 0.357716 0 0.79898 0L 7.19675 0C 7.63802 0 7.99573 0.357715 7.99573 0.79898C 7.99573 1.24024 7.63802 1.59796 7.19675 1.59796L 0.79898 1.59796C 0.357716 1.59796 0 1.24024 0 0.79898Z" transform="translate(119.755 112.781)" fill="black"/>
</g>
<g id="Line 4 (Stroke)_3">
<path fill-rule="evenodd" clip-rule="evenodd" d="M 0 0.79898C 0 0.357715 0.357716 0 0.79898 0L 7.19675 0C 7.63802 0 7.99573 0.357715 7.99573 0.79898C 7.99573 1.24024 7.63802 1.59796 7.19675 1.59796L 0.79898 1.59796C 0.357716 1.59796 0 1.24024 0 0.79898Z" transform="translate(119.755 115.975)" fill="black"/>
</g>
</g>
<g id="Save">
<g id="Rectangle 11 (Stroke)">
<path fill-rule="evenodd" clip-rule="evenodd" d="M 1.59796 18.3617L 19.1909 18.3617L 19.1909 3.85614L 16.9294 1.59796L 1.59796 1.59796L 1.59796 18.3617ZM 19.1909 19.9597L 1.59796 19.9597C 0.715431 19.9597 0 19.2442 0 18.3617L 0 1.59796C 0 0.715431 0.715431 0 1.59796 0L 16.9294 0C 17.3528 0 17.7589 0.168031 18.0585 0.467193L 20.32 2.72537C 20.6202 3.02512 20.7889 3.43192 20.7889 3.85614L 20.7889 18.3617C 20.7889 19.2442 20.0735 19.9597 19.1909 19.9597Z" transform="translate(113.358 148.71)" fill="black"/>
</g>
<g id="Rectangle 14 (Stroke)">
<path fill-rule="evenodd" clip-rule="evenodd" d="M 12.7944 1.59796L 1.59796 1.59796L 1.59796 7.98269L 12.7944 7.98269L 12.7944 1.59796ZM 0 0L 0 9.58065L 14.3923 9.58065L 14.3923 0L 0 0Z" transform="translate(116.557 159.089)" fill="black"/>
</g>
<g id="Subtract">
<path fill-rule="evenodd" clip-rule="evenodd" d="M 12.793 0L 0 0L 0 8.78223L 12.793 8.78223L 12.793 0ZM 10.3945 1.59668L 7.19629 1.59668L 7.19629 7.1853L 10.3945 7.1853L 10.3945 1.59668Z" transform="translate(116.557 148.71)" fill="black"/>
</g>
<g id="Subtract (Stroke)">
<path fill-rule="evenodd" clip-rule="evenodd" d="M 0 0L 0 8.78223L 12.793 8.78223L 12.793 0L 0 0ZM 10.3945 1.59668L 7.19629 1.59668L 7.19629 7.1853L 10.3945 7.1853L 10.3945 1.59668ZM 5.59833 7.18427L 5.59833 1.59796L 1.59796 1.59796L 1.59796 7.18427L 5.59833 7.18427Z" transform="translate(116.557 148.71)" fill="black"/>
</g>
</g>
<g id="Grid View">
<g id="Rectangle 24 (Stroke)">
<path fill-rule="evenodd" clip-rule="evenodd" d="M 0 0L 9.59369 0L 9.59369 9.58183L 0 9.58183L 0 0ZM 1.59796 1.59796L 1.59796 7.98387L 7.99573 7.98387L 7.99573 1.59796L 1.59796 1.59796Z" transform="translate(26.6006 237.33)" fill="black"/>
</g>
<g id="Rectangle 24 (Stroke)_2">
<path fill-rule="evenodd" clip-rule="evenodd" d="M 0 0L 9.59369 0L 9.59369 9.58183L 0 9.58183L 0 0ZM 1.59796 1.59796L 1.59796 7.98387L 7.99573 7.98387L 7.99573 1.59796L 1.59796 1.59796Z" transform="translate(26.6006 248.508)" fill="black"/>
</g>
<g id="Rectangle 24 (Stroke)_3">
<path fill-rule="evenodd" clip-rule="evenodd" d="M 0 0L 9.59369 0L 9.59369 9.58183L 0 9.58183L 0 0ZM 1.59796 1.59796L 1.59796 7.98387L 7.99573 7.98387L 7.99573 1.59796L 1.59796 1.59796Z" transform="translate(37.7949 237.33)" fill="black"/>
</g>
<g id="Rectangle 24 (Stroke)_4">
<path fill-rule="evenodd" clip-rule="evenodd" d="M 0 0L 9.59369 0L 9.59369 9.58183L 0 9.58183L 0 0ZM 1.59796 1.59796L 1.59796 7.98387L 7.99573 7.98387L 7.99573 1.59796L 1.59796 1.59796Z" transform="translate(37.7949 248.508)" fill="black"/>
</g>
</g>
<g id="Review_2">
<g id="Ellipse 9 (Stroke)">
<path fill-rule="evenodd" clip-rule="evenodd" d="M 1.581 7.31455C 1.58085 7.31462 1.58162 7.31189 1.58376 7.30613C 1.58222 7.31158 1.58115 7.31447 1.581 7.31455ZM 1.64175 7.18608C 1.65622 7.15965 1.67353 7.12948 1.69405 7.09551C 1.80653 6.90931 1.98552 6.65803 2.23161 6.36037C 2.72208 5.76711 3.44352 5.03252 4.34097 4.3183C 6.14974 2.87883 8.57585 1.59796 11.1934 1.59796C 13.811 1.59796 16.2371 2.87883 18.0459 4.3183C 18.9434 5.03252 19.6648 5.76711 20.1553 6.36037C 20.4013 6.65803 20.5803 6.90931 20.6928 7.09551C 20.7133 7.12948 20.7306 7.15965 20.7451 7.18607C 20.7306 7.2125 20.7133 7.24267 20.6928 7.27664C 20.5803 7.46285 20.4013 7.71412 20.1553 8.01178C 19.6648 8.60504 18.9434 9.33963 18.0459 10.0539C 16.2371 11.4933 13.811 12.7742 11.1934 12.7742C 8.57585 12.7742 6.14974 11.4933 4.34097 10.0539C 3.44352 9.33963 2.72208 8.60504 2.23161 8.01178C 1.98552 7.71412 1.80653 7.46285 1.69405 7.27664C 1.67353 7.24267 1.65622 7.2125 1.64175 7.18608ZM 20.8059 7.31455C 20.8057 7.31447 20.8046 7.31158 20.8031 7.30612C 20.8052 7.31189 20.806 7.31462 20.8059 7.31455ZM 20.8031 7.06604C 20.8046 7.06057 20.8057 7.05769 20.8059 7.05761C 20.806 7.05753 20.8052 7.06026 20.8031 7.06604ZM 1.58376 7.06603C 1.58162 7.06026 1.58085 7.05753 1.581 7.05761C 1.58115 7.05768 1.58222 7.06057 1.58376 7.06603ZM 3.34592 3.06796C 5.2992 1.51348 8.07032 0 11.1934 0C 14.3166 0 17.0877 1.51348 19.041 3.06796C 20.0245 3.85072 20.8253 4.663 21.3868 5.34218C 21.6667 5.68073 21.8962 5.99706 22.0606 6.2693C 22.1424 6.40473 22.2158 6.54187 22.2713 6.67431C 22.3186 6.78755 22.3869 6.97475 22.3869 7.18608C 22.3869 7.39741 22.3186 7.58461 22.2713 7.69784C 22.2158 7.83028 22.1424 7.96742 22.0606 8.10285C 21.8962 8.3751 21.6667 8.69142 21.3868 9.02998C 20.8253 9.70915 20.0245 10.5214 19.041 11.3042C 17.0877 12.8587 14.3166 14.3722 11.1934 14.3722C 8.07032 14.3722 5.2992 12.8587 3.34592 11.3042C 2.36235 10.5214 1.56155 9.70915 1.00004 9.02998C 0.720144 8.69142 0.490712 8.3751 0.326264 8.10285C 0.244457 7.96742 0.17104 7.83028 0.115613 7.69784C 0.0682198 7.58461 0 7.39741 0 7.18608C 0 6.97475 0.0682198 6.78755 0.115613 6.67431C 0.17104 6.54187 0.244457 6.40473 0.326264 6.2693C 0.490712 5.99706 0.720144 5.68073 1.00004 5.34218C 1.56155 4.663 2.36235 3.85072 3.34592 3.06796Z" transform="translate(69.1797 286.032)" fill="black"/>
</g>
<g id="Ellipse 11 (Stroke)">
<path fill-rule="evenodd" clip-rule="evenodd" d="M 5.59642 1.59796C 3.38701 1.59796 1.59796 3.38606 1.59796 5.5893C 1.59796 7.79254 3.38701 9.58065 5.59642 9.58065C 7.80583 9.58065 9.59488 7.79254 9.59488 5.5893C 9.59488 3.38606 7.80583 1.59796 5.59642 1.59796ZM 0 5.5893C 0 2.5013 2.50672 0 5.59642 0C 8.68612 0 11.1928 2.5013 11.1928 5.5893C 11.1928 8.67731 8.68612 11.1786 5.59642 11.1786C 2.50672 11.1786 0 8.67731 0 5.5893Z" transform="translate(74.7773 286.032)" fill="black"/>
</g>
<g id="Ellipse 11">
<path d="M 4.79744 2.39516C 4.79744 3.71797 3.7235 4.79032 2.39872 4.79032C 1.07394 4.79032 0 3.71797 0 2.39516C 0 1.07235 1.07394 0 2.39872 0C 3.7235 0 4.79744 1.07235 4.79744 2.39516Z" transform="translate(77.9746 289.226)" fill="black"/>
</g>
<g id="Ellipse 11 (Stroke)_2">
<path fill-rule="evenodd" clip-rule="evenodd" d="M 3.1977 1.59796C 2.31307 1.59796 1.59796 2.31371 1.59796 3.19414C 1.59796 4.07457 2.31307 4.79032 3.1977 4.79032C 4.08233 4.79032 4.79744 4.07457 4.79744 3.19414C 4.79744 2.31371 4.08233 1.59796 3.1977 1.59796ZM 0 3.19414C 0 1.42895 1.43278 0 3.1977 0C 4.96262 0 6.3954 1.42895 6.3954 3.19414C 6.3954 4.95934 4.96262 6.38828 3.1977 6.38828C 1.43278 6.38828 0 4.95934 0 3.19414Z" transform="translate(77.1758 288.427)" fill="black"/>
</g>
</g>
<g id="Delete_2">
<g id="Line 10 (Stroke)">
<path fill-rule="evenodd" clip-rule="evenodd" d="M 0 0.79898C 0 0.357716 0.357716 0 0.79898 0L 12.0983 0C 12.5395 0 12.8973 0.357716 12.8973 0.79898C 12.8973 1.24025 12.5395 1.59796 12.0983 1.59796L 0.79898 1.59796C 0.357716 1.59796 0 1.24025 0 0.79898Z" transform="matrix(0.707632 -0.706581 0.707632 0.706581 118.624 296.411)" fill="black"/>
</g>
<g id="Line 11 (Stroke)">
<path fill-rule="evenodd" clip-rule="evenodd" d="M 0 0.79898C 0 0.357716 0.357716 0 0.79898 0L 12.0983 0C 12.5395 0 12.8973 0.357716 12.8973 0.79898C 12.8973 1.24025 12.5395 1.59796 12.0983 1.59796L 0.79898 1.59796C 0.357716 1.59796 0 1.24025 0 0.79898Z" transform="matrix(0.706817 0.707396 -0.706817 0.707396 119.755 287.297)" fill="black"/>
</g>
</g>
<g id="List View">
<g id="Ellipse 13 (Stroke)">
<path fill-rule="evenodd" clip-rule="evenodd" d="M 2.39813 1.59796C 1.95509 1.59796 1.59796 1.95626 1.59796 2.39575C 1.59796 2.83525 1.95509 3.19355 2.39813 3.19355C 2.84117 3.19355 3.19829 2.83525 3.19829 2.39575C 3.19829 1.95626 2.84117 1.59796 2.39813 1.59796ZM 0 2.39575C 0 1.0715 1.0748 0 2.39813 0C 3.72146 0 4.79625 1.0715 4.79625 2.39575C 4.79625 3.72001 3.72146 4.79151 2.39813 4.79151C 1.0748 4.79151 0 3.72001 0 2.39575Z" transform="translate(27.4004 283.637)" fill="black"/>
</g>
<g id="Line 12 (Stroke)">
<path fill-rule="evenodd" clip-rule="evenodd" d="M 0 0.79898C 0 0.357715 0.357716 0 0.79898 0L 11.9942 0C 12.4355 0 12.7932 0.357715 12.7932 0.79898C 12.7932 1.24024 12.4355 1.59796 11.9942 1.59796L 0.79898 1.59796C 0.357716 1.59796 0 1.24024 0 0.79898Z" transform="translate(33.7959 285.233)" fill="black"/>
</g>
<g id="Ellipse 13 (Stroke)_2">
<path fill-rule="evenodd" clip-rule="evenodd" d="M 2.39813 1.59796C 1.95509 1.59796 1.59796 1.95626 1.59796 2.39575C 1.59796 2.83525 1.95509 3.19355 2.39813 3.19355C 2.84117 3.19355 3.19829 2.83525 3.19829 2.39575C 3.19829 1.95626 2.84117 1.59796 2.39813 1.59796ZM 0 2.39575C 0 1.0715 1.0748 0 2.39813 0C 3.72146 0 4.79625 1.0715 4.79625 2.39575C 4.79625 3.72001 3.72146 4.79151 2.39813 4.79151C 1.0748 4.79151 0 3.72001 0 2.39575Z" transform="translate(27.3994 290.024)" fill="black"/>
</g>
<g id="Line 12 (Stroke)_2">
<path fill-rule="evenodd" clip-rule="evenodd" d="M 0 0.79898C 0 0.357715 0.357716 0 0.79898 0L 11.9942 0C 12.4355 0 12.7932 0.357715 12.7932 0.79898C 12.7932 1.24024 12.4355 1.59796 11.9942 1.59796L 0.79898 1.59796C 0.357716 1.59796 0 1.24024 0 0.79898Z" transform="translate(33.7959 291.62)" fill="black"/>
</g>
<g id="Ellipse 13 (Stroke)_3">
<path fill-rule="evenodd" clip-rule="evenodd" d="M 2.39813 1.59796C 1.95509 1.59796 1.59796 1.95626 1.59796 2.39575C 1.59796 2.83525 1.95509 3.19355 2.39813 3.19355C 2.84117 3.19355 3.19829 2.83525 3.19829 2.39575C 3.19829 1.95626 2.84117 1.59796 2.39813 1.59796ZM 0 2.39575C 0 1.0715 1.0748 0 2.39813 0C 3.72146 0 4.79625 1.0715 4.79625 2.39575C 4.79625 3.72001 3.72146 4.79151 2.39813 4.79151C 1.0748 4.79151 0 3.72001 0 2.39575Z" transform="translate(27.3994 296.411)" fill="black"/>
</g>
<g id="Line 12 (Stroke)_3">
<path fill-rule="evenodd" clip-rule="evenodd" d="M 0 0.79898C 0 0.357715 0.357716 0 0.79898 0L 11.9942 0C 12.4355 0 12.7932 0.357715 12.7932 0.79898C 12.7932 1.24024 12.4355 1.59796 11.9942 1.59796L 0.79898 1.59796C 0.357716 1.59796 0 1.24024 0 0.79898Z" transform="translate(33.7959 298.007)" fill="black"/>
</g>
</g>
<g id="Restore_2">
<g id="Vector (Stroke)">
<path fill-rule="evenodd" clip-rule="evenodd" d="M 8.79471 1.59796C 4.83721 1.59796 1.59796 4.8341 1.59796 8.78285C 1.59796 12.7316 4.83721 15.9677 8.79471 15.9677C 12.7522 15.9677 15.9915 12.7316 15.9915 8.78285C 15.9915 8.34159 16.3492 7.98387 16.7904 7.98387C 17.2317 7.98387 17.5894 8.34159 17.5894 8.78285C 17.5894 13.6164 13.6325 17.5657 8.79471 17.5657C 3.95691 17.5657 0 13.6164 0 8.78285C 0 3.94934 3.95691 0 8.79471 0C 11.2474 0 13.4488 0.963822 15.0362 2.54892C 15.3485 2.86071 15.3489 3.36659 15.0371 3.67885C 14.7253 3.9911 14.2194 3.99148 13.9071 3.67969C 12.6161 2.39059 10.8196 1.59796 8.79471 1.59796Z" transform="translate(114.958 194.217)" fill="black"/>
</g>
<g id="Vector (Stroke)_2">
<path fill-rule="evenodd" clip-rule="evenodd" d="M 2.63316 0.233597C 2.94508 -0.0778655 3.45032 -0.0778655 3.76224 0.233597L 6.16097 2.62876C 6.47322 2.94055 6.47359 3.44643 6.1618 3.75869C 5.85001 4.07094 5.34413 4.07131 5.03188 3.75952L 3.1977 1.92807L 1.36352 3.75952C 1.05127 4.07131 0.545386 4.07094 0.233597 3.75869C -0.0781928 3.44643 -0.0778172 2.94055 0.234435 2.62876L 2.63316 0.233597Z" transform="translate(128.551 200.604)" fill="black"/>
</g>
</g>
<g id="Duplicate">
<g id="Rectangle 10 (Stroke)_2">
<path fill-rule="evenodd" clip-rule="evenodd" d="M 8.76973 3.05598L 8.76973 4.81409C 8.76973 5.25535 9.12744 5.61307 9.56871 5.61307L 11.3306 5.61307L 8.76973 3.05598ZM 7.97075 0L 14.3923 6.41205L 14.3923 15.9666C 14.3923 16.8491 13.6769 17.5645 12.7944 17.5645L 1.59796 17.5645C 0.715431 17.5645 0 16.8491 0 15.9666L 0 1.59796C 0 0.715431 0.715431 0 1.59796 0L 7.97075 0ZM 7.17177 1.59796L 1.59796 1.59796L 1.59796 15.9666L 12.7944 15.9666L 12.7944 7.21103L 9.56871 7.21103C 8.24491 7.21103 7.17177 6.13788 7.17177 4.81409L 7.17177 1.59796Z" transform="translate(118.955 237.331)" fill="black"/>
</g>
<g id="Line 4 (Stroke)_4">
<path fill-rule="evenodd" clip-rule="evenodd" d="M 0 0.79898C 0 0.357715 0.357716 0 0.79898 0L 2.39931 0C 2.84058 0 3.19829 0.357715 3.19829 0.79898C 3.19829 1.24024 2.84058 1.59796 2.39931 1.59796L 0.79898 1.59796C 0.357716 1.59796 0 1.24024 0 0.79898Z" transform="translate(122.153 242.918)" fill="black"/>
</g>
<g id="Line 4 (Stroke)_5">
<path fill-rule="evenodd" clip-rule="evenodd" d="M 0 0.79898C 0 0.357715 0.357716 0 0.79898 0L 7.19675 0C 7.63802 0 7.99573 0.357715 7.99573 0.79898C 7.99573 1.24024 7.63802 1.59796 7.19675 1.59796L 0.79898 1.59796C 0.357716 1.59796 0 1.24024 0 0.79898Z" transform="translate(122.153 246.112)" fill="black"/>
</g>
<g id="Line 4 (Stroke)_6">
<path fill-rule="evenodd" clip-rule="evenodd" d="M 0 0.79898C 0 0.357715 0.357716 0 0.79898 0L 7.19675 0C 7.63802 0 7.99573 0.357715 7.99573 0.79898C 7.99573 1.24024 7.63802 1.59796 7.19675 1.59796L 0.79898 1.59796C 0.357716 1.59796 0 1.24024 0 0.79898Z" transform="translate(122.153 249.306)" fill="black"/>
</g>
<g id="Vector 9 (Stroke)">
<path fill-rule="evenodd" clip-rule="evenodd" d="M 0.79898 0C 1.24024 0 1.59796 0.357716 1.59796 0.79898L 1.59796 15.1688C 1.59796 15.61 1.95568 15.9677 2.39694 15.9677L 13.5922 15.9677C 14.0334 15.9677 14.3911 16.3255 14.3911 16.7667C 14.3911 17.208 14.0334 17.5657 13.5922 17.5657L 2.39694 17.5657C 1.07315 17.5657 0 16.4926 0 15.1688L 0 0.79898C 0 0.357716 0.357716 0 0.79898 0Z" transform="translate(115.758 240.524)" fill="black"/>
</g>
</g>
<g id="Pause">
<g id="Rectangle 21 (Stroke)">
<path fill-rule="evenodd" clip-rule="evenodd" d="M 4.79863 1.59796L 1.59796 1.59796L 1.59796 11.1762L 4.79863 11.1762L 4.79863 1.59796ZM 1.59796 0C 0.715431 0 0 0.715431 0 1.59796L 0 11.1762C 0 12.0588 0.715431 12.7742 1.59796 12.7742L 4.79863 12.7742C 5.68116 12.7742 6.39659 12.0588 6.39659 11.1762L 6.39659 1.59796C 6.39659 0.715431 5.68116 0 4.79863 0L 1.59796 0Z" transform="translate(73.1768 151.904)" fill="black"/>
</g>
<g id="Rectangle 21 (Stroke)_2">
<path fill-rule="evenodd" clip-rule="evenodd" d="M 4.79863 1.59796L 1.59796 1.59796L 1.59796 11.1762L 4.79863 11.1762L 4.79863 1.59796ZM 1.59796 0C 0.715431 0 0 0.715431 0 1.59796L 0 11.1762C 0 12.0588 0.715431 12.7742 1.59796 12.7742L 4.79863 12.7742C 5.68116 12.7742 6.39659 12.0588 6.39659 11.1762L 6.39659 1.59796C 6.39659 0.715431 5.68116 0 4.79863 0L 1.59796 0Z" transform="translate(81.1729 151.903)" fill="black"/>
</g>
</g>
<g id="Stop_2">
<g id="Rectangle 21 (Stroke)_3">
<path fill-rule="evenodd" clip-rule="evenodd" d="M 11.1952 1.59796L 1.59796 1.59796L 1.59796 11.1762L 11.1952 11.1762L 11.1952 1.59796ZM 1.59796 0C 0.715431 0 0 0.715431 0 1.59796L 0 11.1762C 0 12.0588 0.715431 12.7742 1.59796 12.7742L 11.1952 12.7742C 12.0777 12.7742 12.7932 12.0588 12.7932 11.1762L 12.7932 1.59796C 12.7932 0.715431 12.0777 0 11.1952 0L 1.59796 0Z" transform="translate(73.9766 196.613)" fill="black"/>
</g>
</g>
<g id="Volume Hi">
<g id="Vector 10 (Stroke)">
<path fill-rule="evenodd" clip-rule="evenodd" d="M 10.3085 0.270454C 11.3706 -0.436498 12.792 0.324857 12.792 1.60064L 12.792 16.1818C 12.792 17.4576 11.3706 18.2189 10.3085 17.512L 4.55523 13.6821L 2.39694 13.6821C 1.07315 13.6821 0 12.609 0 11.2852L 0 6.49725C 0 5.17345 1.07315 4.10031 2.39694 4.10031L 4.55523 4.10031L 10.3085 0.270454ZM 11.194 1.60064L 5.23959 5.56438C 5.10843 5.65169 4.9544 5.69827 4.79685 5.69827L 2.39694 5.69827C 1.95568 5.69827 1.59796 6.05598 1.59796 6.49725L 1.59796 11.2852C 1.59796 11.7265 1.95568 12.0842 2.39694 12.0842L 4.79685 12.0842C 4.9544 12.0842 5.10843 12.1308 5.23959 12.2181L 11.194 16.1818L 11.194 1.60064Z" transform="translate(24.2012 150.197)" fill="black"/>
</g>
<g id="Line 13 (Stroke)">
<path fill-rule="evenodd" clip-rule="evenodd" d="M 0 0.79898C 0 0.357715 0.357716 0 0.79898 0L 8.78167 0C 9.22293 0 9.58065 0.357715 9.58065 0.79898C 9.58065 1.24024 9.22293 1.59796 8.78167 1.59796L 0.79898 1.59796C 0.357716 1.59796 0 1.24024 0 0.79898Z" transform="matrix(0 -1 1 0 28.1992 163.879)" fill="black"/>
</g>
</g>
<g id="Volume Low">
<g id="Vector 10 (Stroke)_2">
<path fill-rule="evenodd" clip-rule="evenodd" d="M 10.3085 0.270454C 11.3706 -0.436498 12.792 0.324857 12.792 1.60064L 12.792 16.1818C 12.792 17.4576 11.3706 18.2189 10.3085 17.512L 4.55523 13.6821L 2.39694 13.6821C 1.07315 13.6821 0 12.609 0 11.2852L 0 6.49725C 0 5.17345 1.07315 4.10031 2.39694 4.10031L 4.55523 4.10031L 10.3085 0.270454ZM 11.194 1.60064L 5.23959 5.56438C 5.10843 5.65169 4.9544 5.69827 4.79685 5.69827L 2.39694 5.69827C 1.95568 5.69827 1.59796 6.05598 1.59796 6.49725L 1.59796 11.2852C 1.59796 11.7265 1.95568 12.0842 2.39694 12.0842L 4.79685 12.0842C 4.9544 12.0842 5.10843 12.1308 5.23959 12.2181L 11.194 16.1818L 11.194 1.60064Z" transform="translate(26.2012 193.907)" fill="black"/>
</g>
<g id="Line 13 (Stroke)_2">
<path fill-rule="evenodd" clip-rule="evenodd" d="M 0 0.79898C 0 0.357715 0.357716 0 0.79898 0L 8.78167 0C 9.22293 0 9.58065 0.357715 9.58065 0.79898C 9.58065 1.24024 9.22293 1.59796 8.78167 1.59796L 0.79898 1.59796C 0.357716 1.59796 0 1.24024 0 0.79898Z" transform="matrix(0 -1 1 0 30.1992 207.589)" fill="black"/>
</g>
</g>
<g id="Group 2_2" opacity="0.5">
<g id="Rectangle 16.17_2">
<rect width="34" height="34" transform="translate(149 141)" fill="white"/>
</g>
<g id="Rectangle 16.18_2">
<rect width="34" height="34" transform="translate(149 186)" fill="white"/>
</g>
<g id="Rectangle 16.19_2">
<rect width="34" height="34" transform="translate(149 231)" fill="white"/>
</g>
<g id="Rectangle 16.20_2">
<rect width="34" height="34" transform="translate(149 276)" fill="white"/>
</g>
<g id="Rectangle 16.3">
<rect width="34" height="34" transform="translate(149 96)" fill="white"/>
</g>
<g id="Like">
<g id="Line 3 (Stroke)">
<path fill-rule="evenodd" clip-rule="evenodd" d="M 0.0412721 0.546375C 0.180902 0.127784 0.633429 -0.0983579 1.05202 0.0412721L 3.44919 0.8409C 3.86778 0.98053 4.09392 1.43306 3.95429 1.85165C 3.81466 2.27024 3.36213 2.49638 2.94354 2.35675L 0.546375 1.55712C 0.127784 1.41749 -0.0983579 0.964965 0.0412721 0.546375Z" transform="matrix(-0.800225 -0.5997 -0.600842 0.799367 157.857 241.163)" fill="black"/>
</g>
<g id="Line 3 (Stroke)_2">
<path fill-rule="evenodd" clip-rule="evenodd" d="M 0.000923707 0.760937C 0.0219433 0.320174 0.396293 -0.0200959 0.837056 0.000923707L 3.31485 0.119087C 3.75561 0.140107 4.09588 0.514456 4.07486 0.95522C 4.05384 1.39598 3.67949 1.73625 3.23873 1.71523L 0.760937 1.59707C 0.320174 1.57605 -0.0200959 1.2017 0.000923707 0.760937Z" transform="matrix(-0.945356 0.326039 0.326893 0.945061 157.138 245.497)" fill="black"/>
</g>
<g id="Line 3 (Stroke)_3">
<path fill-rule="evenodd" clip-rule="evenodd" d="M 0.0412721 0.546375C 0.180902 0.127784 0.633429 -0.0983579 1.05202 0.0412721L 3.44919 0.8409C 3.86778 0.98053 4.09392 1.43306 3.95429 1.85165C 3.81466 2.27024 3.36213 2.49638 2.94354 2.35675L 0.546375 1.55712C 0.127784 1.41749 -0.0983579 0.964965 0.0412721 0.546375Z" transform="matrix(0.800223 -0.599703 0.60084 0.799369 174.77 241.163)" fill="black"/>
</g>
<g id="Line 3 (Stroke)_4">
<path fill-rule="evenodd" clip-rule="evenodd" d="M 0.000923707 0.760937C 0.0219433 0.320174 0.396293 -0.0200959 0.837056 0.000923707L 3.31485 0.119087C 3.75561 0.140107 4.09588 0.514456 4.07486 0.95522C 4.05384 1.39598 3.67949 1.73625 3.23873 1.71523L 0.760937 1.59707C 0.320174 1.57605 -0.0200959 1.2017 0.000923707 0.760937Z" transform="matrix(0.945359 0.326032 -0.3269 0.945059 175.491 245.497)" fill="black"/>
</g>
</g>
<g id="Reply">
<g id="Rectangle 25 (Stroke)">
<path fill-rule="evenodd" clip-rule="evenodd" d="M 8.65537 0.00179997C 9.09565 -0.0275525 9.47637 0.305576 9.50572 0.745863L 10.0707 9.22033C 10.086 9.45022 10.0014 9.67553 9.83844 9.83844C 9.67553 10.0014 9.45022 10.086 9.22033 10.0707L 0.745863 9.50572C 0.305576 9.47637 -0.0275525 9.09565 0.00179997 8.65537C 0.0311525 8.21508 0.411871 7.88195 0.852158 7.9113L 8.41553 8.41553L 7.9113 0.852158C 7.88195 0.411871 8.21508 0.0311525 8.65537 0.00179997Z" transform="matrix(0.707632 -0.706581 0.707632 0.706581 164.402 201.403)" fill="black"/>
</g>
</g>
<g id="Friend">
<g id="Line 3 (Stroke)_5">
<path fill-rule="evenodd" clip-rule="evenodd" d="M 0.041191 0.546618C 0.180687 0.127982 0.633141 -0.0983047 1.05178 0.041191L 3.45023 0.840392C 3.86886 0.979887 4.09515 1.43234 3.95565 1.85098C 3.81616 2.26961 3.3637 2.4959 2.94507 2.3564L 0.546618 1.5572C 0.127982 1.41771 -0.0983047 0.965253 0.041191 0.546618Z" transform="matrix(0.999829 0.0184822 -0.0185393 0.999828 175.279 294.896)" fill="black"/>
</g>
<g id="Line 3 (Stroke)_6">
<path fill-rule="evenodd" clip-rule="evenodd" d="M 0.000926975 0.76087C 0.0219838 0.320108 0.396362 -0.0201299 0.837124 0.00092698L 3.31272 0.119195C 3.75348 0.140252 4.09372 0.51463 4.07266 0.955392C 4.05161 1.39615 3.67723 1.73639 3.23647 1.71534L 0.76087 1.59707C 0.320108 1.57601 -0.0201299 1.20163 0.000926975 0.76087Z" transform="matrix(0.545143 0.838343 -0.839081 0.544007 173.178 298.755)" fill="black"/>
</g>
</g>
<g id="Comment">
<g id="Ellipse 4">
<path d="M 2.39872 1.19758C 2.39872 1.85899 1.86175 2.39516 1.19936 2.39516C 0.536972 2.39516 0 1.85899 0 1.19758C 0 0.536175 0.536972 0 1.19936 0C 1.86175 0 2.39872 0.536175 2.39872 1.19758Z" transform="translate(169.393 111.186)" fill="black"/>
</g>
<g id="Ellipse 4 (Stroke)">
<path fill-rule="evenodd" clip-rule="evenodd" d="M 1.19936 0.797201C 0.981457 0.797201 0.80076 0.974221 0.80076 1.19758C 0.80076 1.42094 0.981457 1.59796 1.19936 1.59796C 1.41726 1.59796 1.59796 1.42094 1.59796 1.19758C 1.59796 0.974221 1.41726 0.797201 1.19936 0.797201ZM 1.19936 2.39516C 1.86175 2.39516 2.39872 1.85899 2.39872 1.19758C 2.39872 0.536175 1.86175 0 1.19936 0C 0.536972 0 0 0.536175 0 1.19758C 0 1.85899 0.536972 2.39516 1.19936 2.39516Z" transform="translate(169.393 111.186)" fill="black"/>
</g>
<g id="Ellipse 4_2">
<path d="M 2.39872 1.19758C 2.39872 1.85899 1.86175 2.39516 1.19936 2.39516C 0.536972 2.39516 0 1.85899 0 1.19758C 0 0.536175 0.536972 0 1.19936 0C 1.86175 0 2.39872 0.536175 2.39872 1.19758Z" transform="translate(164.595 111.186)" fill="black"/>
</g>
<g id="Ellipse 4 (Stroke)_2">
<path fill-rule="evenodd" clip-rule="evenodd" d="M 1.19936 0.797201C 0.981457 0.797201 0.80076 0.974221 0.80076 1.19758C 0.80076 1.42094 0.981457 1.59796 1.19936 1.59796C 1.41726 1.59796 1.59796 1.42094 1.59796 1.19758C 1.59796 0.974221 1.41726 0.797201 1.19936 0.797201ZM 1.19936 2.39516C 1.86175 2.39516 2.39872 1.85899 2.39872 1.19758C 2.39872 0.536175 1.86175 0 1.19936 0C 0.536972 0 0 0.536175 0 1.19758C 0 1.85899 0.536972 2.39516 1.19936 2.39516Z" transform="translate(164.595 111.186)" fill="black"/>
</g>
<g id="Ellipse 4_3">
<path d="M 2.39872 1.19758C 2.39872 1.85899 1.86175 2.39516 1.19936 2.39516C 0.536972 2.39516 0 1.85899 0 1.19758C 0 0.536175 0.536972 0 1.19936 0C 1.86175 0 2.39872 0.536175 2.39872 1.19758Z" transform="translate(159.797 111.186)" fill="black"/>
</g>
<g id="Ellipse 4 (Stroke)_3">
<path fill-rule="evenodd" clip-rule="evenodd" d="M 1.19936 0.797201C 0.981457 0.797201 0.80076 0.974221 0.80076 1.19758C 0.80076 1.42094 0.981457 1.59796 1.19936 1.59796C 1.41726 1.59796 1.59796 1.42094 1.59796 1.19758C 1.59796 0.974221 1.41726 0.797201 1.19936 0.797201ZM 1.19936 2.39516C 1.86175 2.39516 2.39872 1.85899 2.39872 1.19758C 2.39872 0.536175 1.86175 0 1.19936 0C 0.536972 0 0 0.536175 0 1.19758C 0 1.85899 0.536972 2.39516 1.19936 2.39516Z" transform="translate(159.797 111.186)" fill="black"/>
</g>
<g id="Union (Stroke)">
<path fill-rule="evenodd" clip-rule="evenodd" d="M 4.7941 1.59796C 3.02921 1.59796 1.59796 3.02891 1.59796 4.79385L 1.59796 10.3766C 1.59796 12.1416 3.02921 13.5725 4.7941 13.5725L 5.59683 13.5725C 6.0381 13.5725 6.39581 13.9302 6.39581 14.3715L 6.39581 16.0319L 9.70846 13.7166C 9.84266 13.6228 10.0024 13.5725 10.1662 13.5725L 16.7931 13.5725C 18.5589 13.5725 19.9893 12.1417 19.9893 10.3766L 19.9893 4.79385C 19.9893 3.02879 18.5589 1.59796 16.7931 1.59796L 4.7941 1.59796ZM 0 4.79385C 0 2.14619 2.14687 0 4.7941 0L 16.7931 0C 19.4414 0 21.5872 2.14632 21.5872 4.79385L 21.5872 10.3766C 21.5872 13.0241 19.4414 15.1705 16.7931 15.1705L 10.4177 15.1705L 6.05454 18.22C 5.81044 18.3906 5.4917 18.4113 5.2276 18.2736C 4.96349 18.136 4.79785 17.8629 4.79785 17.5651L 4.79785 15.1705L 4.7941 15.1705C 2.14687 15.1705 0 13.0243 0 10.3766L 0 4.79385Z" transform="translate(155 104.798)" fill="black"/>
</g>
</g>
<g id="Send">
<g id="Rectangle 13 (Stroke)">
<path fill-rule="evenodd" clip-rule="evenodd" d="M 19.1909 1.59796L 1.59796 1.59796L 1.59796 12.773L 19.1909 12.773L 19.1909 1.59796ZM 1.59796 0C 0.715431 0 0 0.715431 0 1.59796L 0 12.773C 0 13.6555 0.715431 14.371 1.59796 14.371L 19.1909 14.371C 20.0735 14.371 20.7889 13.6555 20.7889 12.773L 20.7889 1.59796C 20.7889 0.715431 20.0735 0 19.1909 0L 1.59796 0Z" transform="translate(155.938 151.104)" fill="black"/>
</g>
<g id="Vector 5 (Stroke)">
<path fill-rule="evenodd" clip-rule="evenodd" d="M 8.79531 7.68009L 0 1.29299L 0.938962 0L 9.26479 6.04616L 17.5906 0L 18.5296 1.29299L 9.73427 7.68009C 9.4543 7.8834 9.07528 7.8834 8.79531 7.68009Z" transform="translate(157.067 152.055)" fill="black"/>
</g>
<g id="Vector 6 (Stroke)">
<path fill-rule="evenodd" clip-rule="evenodd" d="M 7.19616 7.58221L 0 1.19511L 1.06075 0L 8.25691 6.3871L 7.19616 7.58221Z" transform="translate(167.401 156.894)" fill="black"/>
</g>
<g id="Vector 6 (Stroke)_2">
<path fill-rule="evenodd" clip-rule="evenodd" d="M 7.19616 7.58221L 0 1.19511L 1.06075 0L 8.25691 6.3871L 7.19616 7.58221Z" transform="translate(165.264 156.894) scale(-1 1)" fill="black"/>
</g>
</g>
<g id="Like_2">
<g id="Rectangle 22 (Stroke)">
<path fill-rule="evenodd" clip-rule="evenodd" d="M 2.39813 1.59796C 1.95621 1.59796 1.59796 1.95621 1.59796 2.39813C 1.59796 2.84005 1.95621 3.19829 2.39813 3.19829L 7.18608 3.19829L 7.18608 4.79625L 2.39813 4.79625C 1.07368 4.79625 0 3.72258 0 2.39813C 0 1.07368 1.07368 0 2.39813 0L 5.76672 0L 5.76672 1.59796L 2.39813 1.59796Z" transform="matrix(0 1 -1 0 167.132 242.121)" fill="black"/>
</g>
<g id="Rectangle 22 (Stroke)_2">
<path fill-rule="evenodd" clip-rule="evenodd" d="M 10.3796 0L 12.77 0C 16.7422 0 19.9609 3.22496 19.9609 7.19557C 19.9609 11.1662 16.7422 14.3911 12.77 14.3911L 2.39813 14.3911C 1.07368 14.3911 0 13.3175 0 11.993C 0 10.6686 1.07368 9.59488 2.39813 9.59488L 7.58527 9.59488L 7.58527 11.1928L 2.39813 11.1928C 1.95621 11.1928 1.59796 11.5511 1.59796 11.993C 1.59796 12.4349 1.95621 12.7932 2.39813 12.7932L 12.77 12.7932C 15.8581 12.7932 18.3629 10.2852 18.3629 7.19557C 18.3629 4.10594 15.8581 1.59796 12.77 1.59796L 10.3796 1.59796L 10.3796 0Z" transform="matrix(0 1 -1 0 173.529 238.129)" fill="black"/>
</g>
<g id="Rectangle 22 (Stroke)_3">
<path fill-rule="evenodd" clip-rule="evenodd" d="M 2.39813 1.59796C 1.95621 1.59796 1.59796 1.95621 1.59796 2.39813C 1.59796 2.84005 1.95621 3.19829 2.39813 3.19829L 6.38769 3.19829L 6.38769 4.79625L 2.39813 4.79625C 1.07368 4.79625 0 3.72258 0 2.39813C 0 1.07368 1.07368 0 2.39813 0L 5.14575 0L 5.14575 1.59796L 2.39813 1.59796Z" transform="matrix(0 1 -1 0 170.33 242.121)" fill="black"/>
</g>
<g id="Rectangle 22 (Stroke)_4">
<path fill-rule="evenodd" clip-rule="evenodd" d="M 2.39575 1.59796C 1.95514 1.59796 1.59796 1.95514 1.59796 2.39575C 1.59796 2.83636 1.95514 3.19355 2.39575 3.19355L 7.19557 3.19355C 7.63683 3.19355 7.99455 3.55126 7.99455 3.99253C 7.99455 4.43379 7.63683 4.79151 7.19557 4.79151L 2.39575 4.79151C 1.07262 4.79151 0 3.71889 0 2.39575C 0 1.07262 1.07262 0 2.39575 0L 7.20031 0C 9.40533 0 11.1928 1.78752 11.1928 3.99253L 9.59488 3.99253C 9.59488 2.67004 8.5228 1.59796 7.20031 1.59796L 2.39575 1.59796Z" transform="translate(162.336 246.911)" fill="black"/>
</g>
<g id="Rectangle 22 (Stroke)_5">
<path fill-rule="evenodd" clip-rule="evenodd" d="M 2.39813 1.59796C 1.95621 1.59796 1.59796 1.95621 1.59796 2.39813C 1.59796 2.84005 1.95621 3.19829 2.39813 3.19829L 7.98446 3.19829L 7.98446 4.79625L 2.39813 4.79625C 1.07368 4.79625 0 3.72258 0 2.39813C 0 1.07368 1.07368 0 2.39813 0L 12.7748 0L 12.7748 1.59796L 2.39813 1.59796Z" transform="matrix(0 1 -1 0 173.529 236.532)" fill="black"/>
</g>
<g id="Vector 8 (Stroke)">
<path fill-rule="evenodd" clip-rule="evenodd" d="M 3.1977 1.59796C 2.31419 1.59796 1.59796 2.31419 1.59796 3.1977L 0 3.1977C 0 1.43166 1.43166 0 3.1977 0L 3.99253 0C 4.43379 0 4.79151 0.357716 4.79151 0.79898C 4.79151 1.24024 4.43379 1.59796 3.99253 1.59796L 3.1977 1.59796Z" transform="matrix(0 1 1 0 166.334 250.105)" fill="black"/>
</g>
</g>
<g id="Reply_2">
<g id="Rectangle 25 (Stroke)_2">
<path fill-rule="evenodd" clip-rule="evenodd" d="M 8.65537 0.00179997C 9.09565 -0.0275525 9.47637 0.305576 9.50572 0.745863L 10.0707 9.22033C 10.086 9.45022 10.0014 9.67553 9.83844 9.83844C 9.67553 10.0014 9.45022 10.086 9.22033 10.0707L 0.745863 9.50572C 0.305576 9.47637 -0.0275525 9.09565 0.00179997 8.65537C 0.0311525 8.21508 0.411871 7.88195 0.852158 7.9113L 8.41553 8.41553L 7.9113 0.852158C 7.88195 0.411871 8.21508 0.0311525 8.65537 0.00179997Z" transform="matrix(0.707632 -0.706581 0.707632 0.706581 159.605 201.403)" fill="black"/>
</g>
<g id="Vector 7 (Stroke)">
<path fill-rule="evenodd" clip-rule="evenodd" d="M 0 7.19082C 0 3.21944 3.21944 0 7.19082 0L 16.7904 0L 16.7904 1.59796L 7.19082 1.59796C 4.10197 1.59796 1.59796 4.10197 1.59796 7.19082L 1.59796 8.78285C 1.59796 9.22412 1.24024 9.58183 0.79898 9.58183C 0.357716 9.58183 0 9.22412 0 8.78285L 0 7.19082Z" transform="translate(155.939 200.604)" fill="black"/>
</g>
</g>
<g id="Friend_2">
<g id="Ellipse 8 (Stroke)">
<path fill-rule="evenodd" clip-rule="evenodd" d="M 0.79898 0C 1.24024 0 1.59796 0.357716 1.59796 0.79898C 1.59796 1.23847 1.95509 1.59677 2.39813 1.59677C 2.84117 1.59677 3.19829 1.23847 3.19829 0.79898C 3.19829 0.357716 3.55601 0 3.99727 0C 4.43854 0 4.79625 0.357716 4.79625 0.79898C 4.79625 2.12324 3.72146 3.19473 2.39813 3.19473C 1.0748 3.19473 0 2.12324 0 0.79898C 0 0.357716 0.357716 0 0.79898 0Z" transform="translate(163.934 289.227) scale(-1)" fill="black"/>
</g>
<g id="Ellipse 8 (Stroke)_2">
<path fill-rule="evenodd" clip-rule="evenodd" d="M 0.79898 0C 1.24024 0 1.59796 0.357716 1.59796 0.79898C 1.59796 1.23847 1.95509 1.59677 2.39813 1.59677C 2.84117 1.59677 3.19829 1.23847 3.19829 0.79898C 3.19829 0.357716 3.55601 0 3.99727 0C 4.43854 0 4.79625 0.357716 4.79625 0.79898C 4.79625 2.12324 3.72146 3.19473 2.39813 3.19473C 1.0748 3.19473 0 2.12324 0 0.79898C 0 0.357716 0.357716 0 0.79898 0Z" transform="translate(170.33 289.227) scale(-1)" fill="black"/>
</g>
<g id="Subtract_2">
<path fill-rule="evenodd" clip-rule="evenodd" d="M 1.72501 3.7251C 2.16446 2.48511 3.34805 1.59692 4.74063 1.59692C 6.13321 1.59692 7.31778 2.48535 7.75723 3.72583C 8.64786 3.00586 9.27579 1.97363 9.47305 0.795654C 9.54532 0.360352 9.18106 0 8.73966 0L 0.742586 0C 0.30118 0 -0.063078 0.360352 0.00918758 0.795654C 0.206453 1.97314 0.834383 3.00513 1.72501 3.7251Z" transform="translate(159.992 291.621)" fill="black"/>
</g>
<g id="Subtract (Stroke)_2">
<path fill-rule="evenodd" clip-rule="evenodd" d="M 0.0214012 1.72548C -0.146526 0.713949 0.703111 0 1.54299 0L 9.54006 0C 10.3799 0 11.2296 0.713949 11.0617 1.72548L 11.0615 1.72659C 10.8309 3.10349 10.0973 4.30756 9.05993 5.14616L 8.18165 5.85615L 7.80452 4.79161C 7.47471 3.86062 6.58524 3.19488 5.54104 3.19488C 4.49696 3.19488 3.60834 3.86026 3.2785 4.79097L 2.90129 5.85533L 2.02312 5.14543C 0.985836 4.3069 0.252196 3.10312 0.0215953 1.72665L 0.0214003 1.72548L 0.0214012 1.72548ZM 1.62269 1.59796C 1.74258 2.18698 1.99299 2.72971 2.34309 3.19443C 3.05476 2.24745 4.178 1.62661 5.44903 1.59796L 1.62269 1.59796ZM 5.63304 1.59796C 6.9041 1.62662 8.028 2.24763 8.73998 3.19505C 9.09007 2.73025 9.34049 2.18732 9.46037 1.59796L 5.63304 1.59796ZM 1.54246 1.59797C 1.54212 1.59804 1.54194 1.59805 1.54193 1.59804C 1.54193 1.59802 1.5421 1.59799 1.54246 1.59797Z" transform="translate(159.192 290.822)" fill="black"/>
</g>
<g id="Ellipse 8 (Stroke)_3">
<path fill-rule="evenodd" clip-rule="evenodd" d="M 1.54184 1.59804C 1.54183 1.59802 1.54202 1.59799 1.5424 1.59797ZM 1.62284 1.59796L 9.45983 1.59796C 9.08963 3.41854 7.47588 4.79032 5.54134 4.79032C 3.60679 4.79032 1.99304 3.41854 1.62284 1.59796ZM 0.0217482 1.72652C -0.147836 0.713552 0.704053 0 1.54287 0L 9.5398 0C 10.3786 0 11.2305 0.713551 11.0609 1.72652C 10.6179 4.37296 8.31535 6.38828 5.54134 6.38828C 2.76732 6.38828 0.464794 4.37296 0.0217482 1.72652Z" transform="translate(159.192 290.822)" fill="black"/>
</g>
<g id="Ellipse 8 (Stroke)_4">
<path fill-rule="evenodd" clip-rule="evenodd" d="M 9.59429 1.59796C 5.17692 1.59796 1.59796 5.17331 1.59796 9.58124C 1.59796 13.9892 5.17692 17.5645 9.59429 17.5645C 14.0117 17.5645 17.5906 13.9892 17.5906 9.58124C 17.5906 5.17331 14.0117 1.59796 9.59429 1.59796ZM 0 9.58124C 0 4.28855 4.29663 0 9.59429 0C 14.8919 0 19.1886 4.28855 19.1886 9.58124C 19.1886 14.8739 14.8919 19.1625 9.59429 19.1625C 4.29663 19.1625 0 14.8739 0 9.58124Z" transform="translate(155.14 281.241)" fill="black"/>
</g>
</g>
</g>
<g id="Fast-Forward_2">
<g id="Rectangle 25 (Stroke)_3">
<path fill-rule="evenodd" clip-rule="evenodd" d="M 8.65537 0.00179997C 9.09565 -0.0275525 9.47637 0.305576 9.50572 0.745863L 10.0707 9.22033C 10.086 9.45022 10.0014 9.67553 9.83844 9.83844C 9.67553 10.0014 9.45022 10.086 9.22033 10.0707L 0.745863 9.50572C 0.305576 9.47637 -0.0275525 9.09565 0.00179997 8.65537C 0.0311525 8.21508 0.411871 7.88195 0.852158 7.9113L 8.41553 8.41553L 7.9113 0.852158C 7.88195 0.411871 8.21508 0.0311525 8.65537 0.00179997Z" transform="matrix(0.707631 -0.706582 0.707631 0.706582 69.6475 247.71)" fill="black"/>
</g>
<g id="Rectangle 25 (Stroke)_4">
<path fill-rule="evenodd" clip-rule="evenodd" d="M 8.65537 0.00179997C 9.09565 -0.0275525 9.47637 0.305576 9.50572 0.745863L 10.0707 9.22033C 10.086 9.45022 10.0014 9.67553 9.83844 9.83844C 9.67553 10.0014 9.45022 10.086 9.22033 10.0707L 0.745863 9.50572C 0.305576 9.47637 -0.0275525 9.09565 0.00179997 8.65537C 0.0311525 8.21508 0.411871 7.88195 0.852158 7.9113L 8.41553 8.41553L 7.9113 0.852158C 7.88195 0.411871 8.21508 0.0311525 8.65537 0.00179997Z" transform="matrix(0.707631 -0.706582 0.707631 0.706582 74.3555 247.71)" fill="black"/>
</g>
</g>
<g id="Group_2" opacity="0.2">
<g id="Rectangle 16.21_2">
<rect width="34" height="34" transform="translate(191 141)" fill="white"/>
</g>
<g id="Rectangle 16.22_2">
<rect width="34" height="34" transform="translate(191 186)" fill="white"/>
</g>
<g id="Rectangle 16.23_2">
<rect width="34" height="34" transform="translate(191 231)" fill="white"/>
</g>
<g id="Rectangle 16.24_2">
<rect width="34" height="34" transform="translate(191 276)" fill="white"/>
</g>
<g id="Rectangle 16.4">
<rect width="34" height="34" transform="translate(191 96)" fill="white"/>
</g>
<g id="Camera">
<g id="Rectangle 5">
<path d="M 0 0L 4.79744 0L 4.79744 0.798387L 0 0.798387L 0 0Z" transform="translate(210.111 195.218)" fill="black"/>
</g>
<g id="Line 3 (Stroke)_7">
<path fill-rule="evenodd" clip-rule="evenodd" d="M 0 0.79898C 0 0.357716 0.357716 0 0.79898 0L 3.71875 0C 4.16001 0 4.51773 0.357716 4.51773 0.79898C 4.51773 1.24024 4.16001 1.59796 3.71875 1.59796L 0.79898 1.59796C 0.357716 1.59796 0 1.24024 0 0.79898Z" transform="matrix(0.452201 -0.891916 0.892456 0.451135 214.28 193.857)" fill="black"/>
</g>
<g id="Line 3 (Stroke)_8">
<path fill-rule="evenodd" clip-rule="evenodd" d="M 0 0.79898C 0 0.357716 0.357716 0 0.79898 0L 3.72344 0C 4.1647 0 4.52242 0.357716 4.52242 0.79898C 4.52242 1.24024 4.1647 1.59796 3.72344 1.59796L 0.79898 1.59796C 0.357716 1.59796 0 1.24024 0 0.79898Z" transform="matrix(0.950385 -0.311076 0.311911 0.950111 216.204 196.095)" fill="black"/>
</g>
</g>
<g id="Profile">
<g id="Subtract_3">
<path fill-rule="evenodd" clip-rule="evenodd" d="M 0 0C 0.199219 1.79639 1.72461 3.19385 3.57617 3.19385C 5.42871 3.19385 6.9541 1.79639 7.15332 0L 0 0Z" transform="translate(203.54 251.701)" fill="black"/>
</g>
<g id="Line 3 (Stroke)_9">
<path fill-rule="evenodd" clip-rule="evenodd" d="M 0.0412721 0.546375C 0.180902 0.127784 0.633429 -0.0983579 1.05202 0.0412721L 3.44919 0.8409C 3.86778 0.98053 4.09392 1.43306 3.95429 1.85165C 3.81466 2.27024 3.36213 2.49638 2.94354 2.35675L 0.546375 1.55712C 0.127784 1.41749 -0.0983579 0.964965 0.0412721 0.546375Z" transform="matrix(-0.800223 -0.599703 -0.60084 0.799369 199.84 240.205)" fill="black"/>
</g>
<g id="Line 3 (Stroke)_10">
<path fill-rule="evenodd" clip-rule="evenodd" d="M 0.000923707 0.760937C 0.0219433 0.320174 0.396293 -0.0200959 0.837056 0.000923707L 3.31485 0.119087C 3.75561 0.140107 4.09588 0.514456 4.07486 0.95522C 4.05384 1.39598 3.67949 1.73625 3.23873 1.71523L 0.760937 1.59707C 0.320174 1.57605 -0.0200959 1.2017 0.000923707 0.760937Z" transform="matrix(-0.945359 0.326032 0.326901 0.945059 198.32 244.538)" fill="black"/>
</g>
<g id="Line 3 (Stroke)_11">
<path fill-rule="evenodd" clip-rule="evenodd" d="M 0.0412721 0.546375C 0.180902 0.127784 0.633429 -0.0983579 1.05202 0.0412721L 3.44919 0.8409C 3.86778 0.98053 4.09392 1.43306 3.95429 1.85165C 3.81466 2.27024 3.36213 2.49638 2.94354 2.35675L 0.546375 1.55712C 0.127784 1.41749 -0.0983579 0.964965 0.0412721 0.546375Z" transform="matrix(0.800225 -0.5997 0.600842 0.799367 215.351 240.206)" fill="black"/>
</g>
<g id="Line 3 (Stroke)_12">
<path fill-rule="evenodd" clip-rule="evenodd" d="M 0.000923707 0.760937C 0.0219433 0.320174 0.396293 -0.0200959 0.837056 0.000923707L 3.31485 0.119087C 3.75561 0.140107 4.09588 0.514456 4.07486 0.95522C 4.05384 1.39598 3.67949 1.73625 3.23873 1.71523L 0.760937 1.59707C 0.320174 1.57605 -0.0200959 1.2017 0.000923707 0.760937Z" transform="matrix(0.945359 0.326032 -0.326901 0.945059 216.871 244.539)" fill="black"/>
</g>
</g>
<g id="User">
<g id="Line 3 (Stroke)_13">
<path fill-rule="evenodd" clip-rule="evenodd" d="M 0.0412721 0.546375C 0.180902 0.127784 0.633429 -0.0983579 1.05202 0.0412721L 3.44919 0.8409C 3.86778 0.98053 4.09392 1.43306 3.95429 1.85165C 3.81466 2.27024 3.36213 2.49638 2.94354 2.35675L 0.546375 1.55712C 0.127784 1.41749 -0.0983579 0.964965 0.0412721 0.546375Z" transform="matrix(-0.800223 -0.599703 -0.60084 0.799369 201.855 107.673)" fill="black"/>
</g>
<g id="Line 3 (Stroke)_14">
<path fill-rule="evenodd" clip-rule="evenodd" d="M 0.000923707 0.760937C 0.0219433 0.320174 0.396293 -0.0200959 0.837056 0.000923707L 3.31485 0.119087C 3.75561 0.140107 4.09588 0.514456 4.07486 0.95522C 4.05384 1.39598 3.67949 1.73625 3.23873 1.71523L 0.760937 1.59707C 0.320174 1.57605 -0.0200959 1.2017 0.000923707 0.760937Z" transform="matrix(-0.945359 0.326032 0.326901 0.945059 200.336 112.007)" fill="black"/>
</g>
</g>
<g id="Camera_2">
<g id="Rectangle 3 (Stroke)">
<path fill-rule="evenodd" clip-rule="evenodd" d="M 6.39777 1.59796L 1.59796 1.59796L 1.59796 2.39398L 6.39777 2.39398L 6.39777 1.59796ZM 1.59796 0C 0.715431 0 0 0.715431 0 1.59796L 0 2.39398C 0 3.2765 0.715431 3.99194 1.59796 3.99194L 6.39777 3.99194C 7.2803 3.99194 7.99573 3.2765 7.99573 2.39398L 7.99573 1.59796C 7.99573 0.715431 7.2803 0 6.39777 0L 1.59796 0Z" transform="translate(208.513 193.621)" fill="black"/>
</g>
<g id="Rectangle 2 (Stroke)">
<path fill-rule="evenodd" clip-rule="evenodd" d="M 19.9905 1.59796L 1.59796 1.59796L 1.59796 14.3698L 19.9905 14.3698L 19.9905 1.59796ZM 1.59796 0C 0.715431 0 0 0.715431 0 1.59796L 0 14.3698C 0 15.2523 0.715432 15.9677 1.59796 15.9677L 19.9905 15.9677C 20.8731 15.9677 21.5885 15.2523 21.5885 14.3698L 21.5885 1.59796C 21.5885 0.715431 20.8731 0 19.9905 0L 1.59796 0Z" transform="translate(197.318 196.016)" fill="black"/>
</g>
<g id="Ellipse 2 (Stroke)">
<path fill-rule="evenodd" clip-rule="evenodd" d="M 5.59701 9.57946C 7.80787 9.57946 9.59607 7.7905 9.59607 5.58871C 9.59607 3.38692 7.80787 1.59796 5.59701 1.59796C 3.38616 1.59796 1.59796 3.38692 1.59796 5.58871C 1.59796 7.7905 3.38616 9.57946 5.59701 9.57946ZM 5.59701 11.1774C 8.68816 11.1774 11.194 8.67527 11.194 5.58871C 11.194 2.50215 8.68816 0 5.59701 0C 2.50587 0 0 2.50215 0 5.58871C 0 8.67527 2.50587 11.1774 5.59701 11.1774Z" transform="translate(204.515 198.412)" fill="black"/>
</g>
<g id="Ellipse 2 (Stroke)_2">
<path fill-rule="evenodd" clip-rule="evenodd" d="M 3.19829 4.78914C 4.08437 4.78914 4.79863 4.07253 4.79863 3.19355C 4.79863 2.31457 4.08437 1.59796 3.19829 1.59796C 2.31222 1.59796 1.59796 2.31457 1.59796 3.19355C 1.59796 4.07253 2.31222 4.78914 3.19829 4.78914ZM 3.19829 6.3871C 4.96466 6.3871 6.39659 4.9573 6.39659 3.19355C 6.39659 1.4298 4.96466 0 3.19829 0C 1.43192 0 0 1.4298 0 3.19355C 0 4.9573 1.43192 6.3871 3.19829 6.3871Z" transform="translate(206.913 200.807)" fill="black"/>
</g>
<g id="Line 2 (Stroke)">
<path fill-rule="evenodd" clip-rule="evenodd" d="M 7.99573 1.59796L 0 1.59796L 0 0L 7.99573 0L 7.99573 1.59796Z" transform="translate(198.918 200.007)" fill="black"/>
</g>
<g id="Line 2 (Stroke)_2">
<path fill-rule="evenodd" clip-rule="evenodd" d="M 4.79744 1.59796L 0 1.59796L 0 0L 4.79744 0L 4.79744 1.59796Z" transform="translate(209.31 200.007)" fill="black"/>
</g>
<g id="Line 2 (Stroke)_3">
<path fill-rule="evenodd" clip-rule="evenodd" d="M 7.99573 1.59796L 0 1.59796L 0 0L 7.99573 0L 7.99573 1.59796Z" transform="translate(198.918 206.394)" fill="black"/>
</g>
<g id="Line 2 (Stroke)_4">
<path fill-rule="evenodd" clip-rule="evenodd" d="M 4.79744 1.59796L 0 1.59796L 0 0L 4.79744 0L 4.79744 1.59796Z" transform="translate(209.31 206.394)" fill="black"/>
</g>
</g>
<g id="Profile_2">
<g id="Vector 4 (Stroke)">
<path fill-rule="evenodd" clip-rule="evenodd" d="M 5.59286 1.59796C 3.38654 1.59796 1.59796 3.38654 1.59796 5.59286L 1.59796 6.38769C 1.59796 6.82895 1.24024 7.18667 0.79898 7.18667C 0.357716 7.18667 0 6.82895 0 6.38769L 0 5.59286C 0 2.50401 2.50401 0 5.59286 0L 9.59785 0C 12.6867 0 15.1907 2.50401 15.1907 5.59286L 15.1907 6.38769C 15.1907 6.82895 14.833 7.18667 14.3917 7.18667C 13.9505 7.18667 13.5927 6.82895 13.5927 6.38769L 13.5927 5.59286C 13.5927 3.38654 11.8042 1.59796 9.59785 1.59796L 5.59286 1.59796Z" transform="translate(199.518 250.104)" fill="black"/>
</g>
<g id="Ellipse 10 (Stroke)">
<path fill-rule="evenodd" clip-rule="evenodd" d="M 5.19723 8.78107C 7.18728 8.78107 8.79649 7.17084 8.79649 5.18952C 8.79649 3.20819 7.18728 1.59796 5.19723 1.59796C 3.20717 1.59796 1.59796 3.20819 1.59796 5.18952C 1.59796 7.17084 3.20717 8.78107 5.19723 8.78107ZM 5.19723 10.379C 8.06758 10.379 10.3945 8.05561 10.3945 5.18952C 10.3945 2.32343 8.06758 0 5.19723 0C 2.32688 0 0 2.32343 0 5.18952C 0 8.05561 2.32688 10.379 5.19723 10.379Z" transform="translate(201.916 238.928)" fill="black"/>
</g>
<g id="Rectangle 17 (Stroke)">
<path fill-rule="evenodd" clip-rule="evenodd" d="M 3.99905 1.59796L 1.59796 1.59796L 1.59796 2.39398L 3.99905 2.39398L 3.99905 1.59796ZM 0 0L 0 3.99194L 5.59701 3.99194L 5.59701 0L 0 0Z" transform="translate(204.314 247.71)" fill="black"/>
</g>
<g id="Vector 3 (Stroke)">
<path fill-rule="evenodd" clip-rule="evenodd" d="M 0.139887 6.06161L 2.83794 0L 4.29781 0.649798L 1.59976 6.7114L 6.76617 6.7114L 6.76617 8.30936L 1.59976 8.30936C 0.443006 8.30936 -0.3305 7.1184 0.139887 6.06161Z" transform="translate(199.147 243.393)" fill="black"/>
</g>
<g id="Vector 3 (Stroke)_2">
<path fill-rule="evenodd" clip-rule="evenodd" d="M 0.139887 6.06161L 2.83794 0L 4.29781 0.649798L 1.59976 6.7114L 6.76617 6.7114L 6.76617 8.30936L 1.59976 8.30936C 0.443006 8.30936 -0.3305 7.1184 0.139887 6.06161Z" transform="translate(215.078 243.393) scale(-1 1)" fill="black"/>
</g>
<g id="Vector 2 (Stroke)">
<path fill-rule="evenodd" clip-rule="evenodd" d="M 9.17902 0.29351C 9.4582 0.635233 9.4075 1.13857 9.06577 1.41775C 7.1348 2.99529 5.21013 3.35933 3.57535 3.11621C 1.97519 2.87824 0.704285 2.06763 0 1.36439L 1.12909 0.233621C 1.62416 0.727962 2.59206 1.35445 3.8104 1.53563C 4.99412 1.71167 6.46764 1.47691 8.05478 0.18026C 8.39651 -0.0989167 8.89985 -0.0482129 9.17902 0.29351Z" transform="translate(203.75 239.726)" fill="black"/>
</g>
</g>
<g id="Location">
<g id="Rectangle 16 (Stroke)">
<path fill-rule="evenodd" clip-rule="evenodd" d="M 8.79649 1.59796L 1.59796 1.59796L 1.59796 15.1682L 8.79649 15.1682L 8.79649 1.59796ZM 1.59796 0C 0.715431 0 0 0.715431 0 1.59796L 0 16.7661L 10.3945 16.7661L 10.3945 1.59796C 10.3945 0.715431 9.67902 0 8.79649 0L 1.59796 0Z" transform="translate(202.915 148.71)" fill="black"/>
</g>
<g id="Rectangle 16 (Stroke)_2">
<path fill-rule="evenodd" clip-rule="evenodd" d="M 7.99692 1.59796L 1.59796 1.59796L 1.59796 10.3778L 7.99692 10.3778L 7.99692 1.59796ZM 1.59796 0C 0.715431 0 0 0.715431 0 1.59796L 0 10.3778C 0 11.2604 0.715431 11.9758 1.59796 11.9758L 9.59488 11.9758L 9.59488 0L 1.59796 0Z" transform="translate(194.919 153.5)" fill="black"/>
</g>
<g id="Rectangle 16 (Stroke)_3">
<path fill-rule="evenodd" clip-rule="evenodd" d="M 7.19735 1.59796L 1.59796 1.59796L 1.59796 7.1843L 7.19735 7.1843L 7.19735 1.59796ZM 0 0L 0 8.78226L 7.19735 8.78226C 8.07988 8.78226 8.79531 8.06683 8.79531 7.1843L 8.79531 1.59796C 8.79531 0.715431 8.07988 0 7.19735 0L 0 0Z" transform="translate(211.71 156.694)" fill="black"/>
</g>
<g id="Line 5 (Stroke)">
<path fill-rule="evenodd" clip-rule="evenodd" d="M 7.19616 1.59796L 0 1.59796L 0 0L 7.19616 0L 7.19616 1.59796Z" transform="translate(204.514 151.104)" fill="black"/>
</g>
<g id="Line 6 (Stroke)">
<path fill-rule="evenodd" clip-rule="evenodd" d="M 1.59677 1.59796L 0 1.59796L 0 0L 1.59677 0L 1.59677 1.59796Z" transform="matrix(0 1 -1 0 207.711 154.299)" fill="black"/>
</g>
<g id="Line 6 (Stroke)_2">
<path fill-rule="evenodd" clip-rule="evenodd" d="M 1.59677 1.59796L 0 1.59796L 0 0L 1.59677 0L 1.59677 1.59796Z" transform="matrix(0 1 -1 0 198.916 156.694)" fill="black"/>
</g>
<g id="Line 6 (Stroke)_3">
<path fill-rule="evenodd" clip-rule="evenodd" d="M 1.59677 1.59796L 0 1.59796L 0 0L 1.59677 0L 1.59677 1.59796Z" transform="matrix(0 1 -1 0 202.114 156.694)" fill="black"/>
</g>
<g id="Line 6 (Stroke)_4">
<path fill-rule="evenodd" clip-rule="evenodd" d="M 1.59677 1.59796L 0 1.59796L 0 0L 1.59677 0L 1.59677 1.59796Z" transform="matrix(0 1 -1 0 198.916 159.887)" fill="black"/>
</g>
<g id="Line 6 (Stroke)_5">
<path fill-rule="evenodd" clip-rule="evenodd" d="M 1.59677 1.59796L 0 1.59796L 0 0L 1.59677 0L 1.59677 1.59796Z" transform="matrix(0 1 -1 0 202.114 159.887)" fill="black"/>
</g>
<g id="Line 6 (Stroke)_6">
<path fill-rule="evenodd" clip-rule="evenodd" d="M 1.59677 1.59796L 0 1.59796L 0 0L 1.59677 0L 1.59677 1.59796Z" transform="matrix(0 1 -1 0 200.515 162.283)" fill="black"/>
</g>
<g id="Line 6 (Stroke)_7">
<path fill-rule="evenodd" clip-rule="evenodd" d="M 1.59677 1.59796L 0 1.59796L 0 0L 1.59677 0L 1.59677 1.59796Z" transform="matrix(0 1 -1 0 210.109 154.299)" fill="black"/>
</g>
<g id="Line 6 (Stroke)_8">
<path fill-rule="evenodd" clip-rule="evenodd" d="M 1.59677 1.59796L 0 1.59796L 0 0L 1.59677 0L 1.59677 1.59796Z" transform="matrix(0 1 -1 0 207.711 157.492)" fill="black"/>
</g>
<g id="Line 6 (Stroke)_9">
<path fill-rule="evenodd" clip-rule="evenodd" d="M 1.59677 1.59796L 0 1.59796L 0 0L 1.59677 0L 1.59677 1.59796Z" transform="matrix(0 1 -1 0 210.109 157.493)" fill="black"/>
</g>
<g id="Rectangle 18 (Stroke)">
<path fill-rule="evenodd" clip-rule="evenodd" d="M 3.99905 1.59796L 1.59796 1.59796L 1.59796 3.19236L 3.99905 3.19236L 3.99905 1.59796ZM 0 0L 0 4.79032L 5.59701 4.79032L 5.59701 0L 0 0Z" transform="translate(205.313 160.686)" fill="black"/>
</g>
<g id="Line 7 (Stroke)">
<path fill-rule="evenodd" clip-rule="evenodd" d="M 3.99787 1.59796L 0 1.59796L 0 0L 3.99787 0L 3.99787 1.59796Z" transform="translate(214.108 159.088)" fill="black"/>
</g>
<g id="Line 8 (Stroke)">
<path fill-rule="evenodd" clip-rule="evenodd" d="M 2.39516 1.59796L 0 1.59796L 0 0L 2.39516 0L 2.39516 1.59796Z" transform="matrix(0 1 -1 0 215.707 162.283)" fill="black"/>
</g>
<g id="Line 8 (Stroke)_2">
<path fill-rule="evenodd" clip-rule="evenodd" d="M 2.39516 1.59796L 0 1.59796L 0 0L 2.39516 0L 2.39516 1.59796Z" transform="matrix(0 1 -1 0 218.105 162.283)" fill="black"/>
</g>
</g>
<g id="Reply_3">
<g id="Rectangle 25 (Stroke)_5">
<path fill-rule="evenodd" clip-rule="evenodd" d="M 8.65537 0.00179997C 9.09565 -0.0275525 9.47637 0.305576 9.50572 0.745863L 10.0707 9.22033C 10.086 9.45022 10.0014 9.67553 9.83844 9.83844C 9.67553 10.0014 9.45022 10.086 9.22033 10.0707L 0.745863 9.50572C 0.305576 9.47637 -0.0275525 9.09565 0.00179997 8.65537C 0.0311525 8.21508 0.411871 7.88195 0.852158 7.9113L 8.41553 8.41553L 7.9113 0.852158C 7.88195 0.411871 8.21508 0.0311525 8.65537 0.00179997Z" transform="matrix(0.707632 -0.706581 0.707632 0.706581 204.463 292.117)" fill="black"/>
</g>
</g>
<g id="Reply_4">
<g id="Rectangle 25 (Stroke)_6">
<path fill-rule="evenodd" clip-rule="evenodd" d="M 8.65537 0.00179997C 9.09565 -0.0275525 9.47637 0.305576 9.50572 0.745863L 10.0707 9.22033C 10.086 9.45022 10.0014 9.67553 9.83844 9.83844C 9.67553 10.0014 9.45022 10.086 9.22033 10.0707L 0.745863 9.50572C 0.305576 9.47637 -0.0275525 9.09565 0.00179997 8.65537C 0.0311525 8.21508 0.411871 7.88195 0.852158 7.9113L 8.41553 8.41553L 7.9113 0.852158C 7.88195 0.411871 8.21508 0.0311525 8.65537 0.00179997Z" transform="matrix(0.707632 -0.706581 0.707632 0.706581 199.666 292.118)" fill="black"/>
</g>
<g id="Vector 7 (Stroke)_2">
<path fill-rule="evenodd" clip-rule="evenodd" d="M 0 7.19082C 0 3.21944 3.21944 0 7.19082 0L 16.7904 0L 16.7904 1.59796L 7.19082 1.59796C 4.10197 1.59796 1.59796 4.10197 1.59796 7.19082L 1.59796 8.78285C 1.59796 9.22412 1.24024 9.58183 0.79898 9.58183C 0.357716 9.58183 0 9.22412 0 8.78285L 0 7.19082Z" transform="translate(196 291.318)" fill="black"/>
</g>
</g>
<g id="User_2">
<g id="Vector 4 (Stroke)_2">
<path fill-rule="evenodd" clip-rule="evenodd" d="M 5.59286 1.59796C 3.38654 1.59796 1.59796 3.38654 1.59796 5.59286L 1.59796 6.38769C 1.59796 6.82895 1.24024 7.18667 0.79898 7.18667C 0.357716 7.18667 0 6.82895 0 6.38769L 0 5.59286C 0 2.50401 2.50401 0 5.59286 0L 9.59785 0C 12.6867 0 15.1907 2.50401 15.1907 5.59286L 15.1907 6.38769C 15.1907 6.82895 14.833 7.18667 14.3917 7.18667C 13.9505 7.18667 13.5927 6.82895 13.5927 6.38769L 13.5927 5.59286C 13.5927 3.38654 11.8042 1.59796 9.59785 1.59796L 5.59286 1.59796Z" transform="translate(201.517 115.976)" fill="black"/>
</g>
<g id="Ellipse 10 (Stroke)_2">
<path fill-rule="evenodd" clip-rule="evenodd" d="M 5.19723 8.78107C 7.18728 8.78107 8.79649 7.17084 8.79649 5.18952C 8.79649 3.20819 7.18728 1.59796 5.19723 1.59796C 3.20717 1.59796 1.59796 3.20819 1.59796 5.18952C 1.59796 7.17084 3.20717 8.78107 5.19723 8.78107ZM 5.19723 10.379C 8.06758 10.379 10.3945 8.05561 10.3945 5.18952C 10.3945 2.32343 8.06758 0 5.19723 0C 2.32688 0 0 2.32343 0 5.18952C 0 8.05561 2.32688 10.379 5.19723 10.379Z" transform="translate(203.915 104.799)" fill="black"/>
</g>
<g id="Rectangle 17 (Stroke)_2">
<path fill-rule="evenodd" clip-rule="evenodd" d="M 3.99905 1.59796L 1.59796 1.59796L 1.59796 2.39398L 3.99905 2.39398L 3.99905 1.59796ZM 0 0L 0 3.99194L 5.59701 3.99194L 5.59701 0L 0 0Z" transform="translate(206.313 113.581)" fill="black"/>
</g>
<g id="Vector 2 (Stroke)_2">
<path fill-rule="evenodd" clip-rule="evenodd" d="M 9.17902 0.29351C 9.4582 0.635233 9.4075 1.13857 9.06577 1.41775C 7.1348 2.99529 5.21013 3.35933 3.57535 3.11621C 1.97519 2.87824 0.704285 2.06763 0 1.36439L 1.12909 0.233621C 1.62416 0.727962 2.59206 1.35445 3.8104 1.53563C 4.99412 1.71167 6.46764 1.47691 8.05478 0.18026C 8.39651 -0.0989167 8.89985 -0.0482129 9.17902 0.29351Z" transform="translate(205.749 105.597)" fill="black"/>
</g>
</g>
</g>
</g>
<g id="Rectangle 14">
<rect x="0.5" y="0.5" width="33" height="33" transform="translate(20 186)" stroke="#907CFF"/>
</g>
<g id="Rectangle 15.4">
<rect width="4" height="4" transform="translate(52 184)" fill="white"/>
<rect x="-0.5" y="-0.5" width="5" height="5" transform="translate(52 184)" stroke="#907CFF"/>
</g>
<g id="Rectangle 15.1">
<path fill-rule="evenodd" clip-rule="evenodd" d="M -0.5 -0.5L 0 -0.5L 4 -0.5L 4.5 -0.5L 4.5 0L 4.5 4L 4.5 4.5L 4 4.5L 0 4.5L -0.5 4.5L -0.5 4L -0.5 0L -0.5 -0.5Z" transform="translate(18 184)" fill="white"/>
<path fill-rule="evenodd" clip-rule="evenodd" d="M -0.5 -0.5L 0 -0.5L 4 -0.5L 4.5 -0.5L 4.5 0L 4.5 4L 4.5 4.5L 4 4.5L 0 4.5L -0.5 4.5L -0.5 4L -0.5 0L -0.5 -0.5Z" stroke-miterlimit="8" transform="translate(18 184)" stroke="#907CFF"/>
</g>
<g id="Rectangle 15.2">
<rect width="4" height="4" transform="translate(52 218)" fill="white"/>
<rect x="-0.5" y="-0.5" width="5" height="5" transform="translate(52 218)" stroke="#907CFF"/>
</g>
<g id="Rectangle 15.3">
<rect width="4" height="4" transform="translate(18 218)" fill="white"/>
<rect x="-0.5" y="-0.5" width="5" height="5" transform="translate(18 218)" stroke="#907CFF"/>
</g>
</g>
</g>
</svg>

