<svg width="260" height="140" viewBox="0 0 260 140" version="1.1" xmlns="http://www.w3.org/2000/svg" xmlns:xlink="http://www.w3.org/1999/xlink">
<g id="Canvas" fill="none">
<g id="Frame 5.2">
<g id="Group 32.1">
<g id="Arrow">
<path d="M 158.575 64.0754C 158.893 63.7576 158.893 63.2424 158.575 62.9246L 153.396 57.7456C 153.079 57.4278 152.563 57.4278 152.246 57.7456C 151.928 58.0634 151.928 58.5786 152.246 58.8965L 156.849 63.5L 152.246 68.1035C 151.928 68.4214 151.928 68.9366 152.246 69.2544C 152.563 69.5722 153.079 69.5722 153.396 69.2544L 158.575 64.0754ZM 122.229 61.6566L 122.816 61.0928L 122.816 61.0928L 122.229 61.6566ZM 64.7708 1.84339L 65.3577 1.27961L 65.3577 1.27961L 64.7708 1.84339ZM 126.556 64.3138L 158 64.3138L 158 62.6862L 126.556 62.6862L 126.556 64.3138ZM 122.816 61.0928L 65.3577 1.27961L 64.1839 2.40716L 121.642 62.2204L 122.816 61.0928ZM 60.4439 -0.8138L 0 -0.8138L 0 0.8138L 60.4439 0.8138L 60.4439 -0.8138ZM 65.3577 1.27961C 64.0729 -0.0578425 62.2984 -0.8138 60.4439 -0.8138L 60.4439 0.8138C 61.8554 0.8138 63.206 1.38918 64.1839 2.40716L 65.3577 1.27961ZM 126.556 62.6862C 125.145 62.6862 123.794 62.1108 122.816 61.0928L 121.642 62.2204C 122.927 63.5578 124.702 64.3138 126.556 64.3138L 126.556 62.6862Z" transform="translate(0 32)" fill="url(#paint0_linear)"/>
</g>
<g id="Arrow_2">
<path d="M 100.76 32.0754C 101.078 31.7576 101.078 31.2424 100.76 30.9246L 95.5809 25.7456C 95.2631 25.4278 94.7478 25.4278 94.43 25.7456C 94.1122 26.0634 94.1122 26.5786 94.43 26.8965L 99.0336 31.5L 94.43 36.1035C 94.1122 36.4214 94.1122 36.9366 94.43 37.2544C 94.7478 37.5722 95.2631 37.5722 95.5809 37.2544L 100.76 32.0754ZM 83.2426 29.7426L 82.6672 30.3181L 82.6672 30.3181L 83.2426 29.7426ZM 55.2574 1.75736L 54.6819 2.3328L 54.6819 2.3328L 55.2574 1.75736ZM 87.4853 32.3138L 100.184 32.3138L 100.184 30.6862L 87.4853 30.6862L 87.4853 32.3138ZM 83.8181 29.1672L 55.8328 1.18192L 54.6819 2.3328L 82.6672 30.3181L 83.8181 29.1672ZM 51.0147 -0.8138L 0 -0.8138L 0 0.8138L 51.0147 0.8138L 51.0147 -0.8138ZM 55.8328 1.18192C 54.555 -0.09592 52.8218 -0.8138 51.0147 -0.8138L 51.0147 0.8138C 52.3902 0.8138 53.7093 1.3602 54.6819 2.3328L 55.8328 1.18192ZM 87.4853 30.6862C 86.1098 30.6862 84.7907 30.1398 83.8181 29.1672L 82.6672 30.3181C 83.945 31.5959 85.6781 32.3138 87.4853 32.3138L 87.4853 30.6862Z" transform="translate(1 63.5) scale(1 -1)" fill="url(#paint1_linear)"/>
</g>
<g id="Arrow_3">
<path d="M 41.5754 0.575444C 41.8933 0.257635 41.8933 -0.257635 41.5754 -0.575444L 36.3965 -5.75444C 36.0786 -6.07225 35.5634 -6.07225 35.2456 -5.75444C 34.9278 -5.43663 34.9278 -4.92136 35.2456 -4.60355L 39.8491 0L 35.2456 4.60355C 34.9278 4.92136 34.9278 5.43663 35.2456 5.75444C 35.5634 6.07225 36.0786 6.07225 36.3965 5.75444L 41.5754 0.575444ZM 0 0.8138L 41 0.8138L 41 -0.8138L 0 -0.8138L 0 0.8138Z" transform="translate(1 96)" fill="url(#paint2_linear)"/>
</g>
<g id="Vector">
<path fill-rule="evenodd" clip-rule="evenodd" d="M 28.0231 0C 12.5269 0 0 12.1463 0 27.1718C 0 39.1831 8.02649 49.3501 19.1615 52.949C 20.5534 53.2189 21.0637 52.3642 21.0637 51.6444C 21.0637 51.0146 21.0173 48.8552 21.0173 46.6059C 13.2228 48.2254 11.599 43.3669 11.599 43.3669C 10.3463 40.2178 8.49045 39.4081 8.49045 39.4081C 5.93868 37.7436 8.67604 37.7436 8.67604 37.7436C 11.5062 37.9235 12.9909 40.5327 12.9909 40.5327C 15.4962 44.6715 19.5327 43.5018 21.1565 42.7821C 21.3885 41.0276 22.1309 39.813 22.9196 39.1382C 16.7025 38.5084 10.1607 36.1691 10.1607 25.7322C 10.1607 22.7631 11.2742 20.3338 13.0373 18.4444C 12.7589 17.7696 11.7846 14.9805 13.3156 11.2466C 13.3156 11.2466 15.6818 10.5268 21.0173 14.0358C 23.2444 13.4509 25.6569 13.136 28.0231 13.136C 30.3893 13.136 32.8019 13.4509 35.0289 14.0358C 40.3644 10.5268 42.7306 11.2466 42.7306 11.2466C 44.2617 14.9805 43.2874 17.7696 43.009 18.4444C 44.8185 20.3338 45.8856 22.7631 45.8856 25.7322C 45.8856 36.1691 39.3437 38.4634 33.0803 39.1382C 34.101 39.9929 34.9825 41.6124 34.9825 44.1766C 34.9825 47.8205 34.9361 50.7447 34.9361 51.6444C 34.9361 52.3642 35.4465 53.2189 36.8384 52.949C 47.9734 49.3501 55.9999 39.1831 55.9999 27.1718C 56.0463 12.1463 43.473 0 28.0231 0Z" transform="translate(166 68)" fill="black"/>
</g>
</g>
<g id="Subtract">
<path fill-rule="evenodd" clip-rule="evenodd" d="M 17.22 2.04297L 0 31.4949L 8.34595 46.3308L 21.2776 25.1719L 25.9924 17.3931L 17.22 2.04297ZM 45.551 47L 10.2085 47L 19.3884 31.9797L 54.0007 31.9797L 45.551 47ZM 53.446 30.0415L 36.344 0L 18.4143 0L 18.3489 0.111816L 28.3684 17.6443L 35.5071 30.0415L 53.446 30.0415Z" transform="translate(46 74)" fill="black"/>
</g>
<g id="Group 2.1">
<g id="Vector 12.3">
<path d="M 12.7399 9.66664L 0 5.33332L 0 23.9999L 12.7399 28.6666L 12.7399 9.66664Z" transform="translate(106 6)" fill="black"/>
<path d="M 14.0809 7.99997C 13.5445 7.99997 5.58767 5.33332 1.6763 3.99999L 14.0809 0L 26.1503 3.99999C 22.3507 5.33332 14.6174 7.99997 14.0809 7.99997Z" transform="translate(106 6)" fill="black"/>
<path d="M 27.8266 23.9999L 27.8266 5.33332L 15.422 9.66664L 15.422 28.6666L 27.8266 23.9999Z" transform="translate(106 6)" fill="black"/>
</g>
<g id="Vector 12.4">
<path d="M 12.7399 9.66664L 0 5.33332L 0 23.9999L 12.7399 28.6666L 12.7399 9.66664Z" transform="translate(136.174 6)" fill="black"/>
<path d="M 14.0809 7.99997C 13.5445 7.99997 5.58767 5.33332 1.6763 3.99999L 14.0809 0L 26.1503 3.99999C 22.3507 5.33332 14.6174 7.99997 14.0809 7.99997Z" transform="translate(136.174 6)" fill="black"/>
<path d="M 27.8266 23.9999L 27.8266 5.33332L 15.422 9.66664L 15.422 28.6666L 27.8266 23.9999Z" transform="translate(136.174 6)" fill="black"/>
</g>
<g id="Vector 12.5">
<path d="M 12.7399 9.66664L 0 5.33332L 0 23.9999L 12.7399 28.6666L 12.7399 9.66664Z" transform="translate(120.752 32.3335)" fill="black"/>
<path d="M 14.0809 7.99997C 13.5445 7.99997 5.58767 5.33332 1.6763 3.99999L 14.0809 0L 26.1503 3.99999C 22.3507 5.33332 14.6174 7.99997 14.0809 7.99997Z" transform="translate(120.752 32.3335)" fill="black"/>
<path d="M 27.8266 23.9999L 27.8266 5.33332L 15.422 9.66664L 15.422 28.6666L 27.8266 23.9999Z" transform="translate(120.752 32.3335)" fill="black"/>
</g>
</g>
</g>
</g>
<defs>

<linearGradient id="paint0_linear" x2="1" gradientUnits="userSpaceOnUse" gradientTransform="translate(71 145.325) scale(-70.5 -162.65)">
<stop/>
<stop offset="1" stop-color="#222222" stop-opacity="0"/>
</linearGradient>
<linearGradient id="paint1_linear" x2="1" gradientUnits="userSpaceOnUse" gradientTransform="translate(48.5536 72.0903) scale(-48.2116 -80.6845)">
<stop/>
<stop offset="1" stop-color="#222222" stop-opacity="0"/>
</linearGradient>
<linearGradient id="paint2_linear" x2="1" gradientUnits="userSpaceOnUse" gradientTransform="translate(19.8703 2.28858) scale(-19.7304 -2.56141)">
<stop/>
<stop offset="1" stop-color="#222222" stop-opacity="0"/>
</linearGradient>

</defs>
</svg>

