<svg width="273" height="140" viewBox="0 0 273 140" version="1.1" xmlns="http://www.w3.org/2000/svg" xmlns:xlink="http://www.w3.org/1999/xlink">
<g id="Canvas" fill="none">
<g id="Frame 5.1">
<g id="Group 32.1">
<g id="Arrow">
<path d="M 76.2599 0.575444C 76.5777 0.257635 76.5777 -0.257635 76.2599 -0.575444L 71.0809 -5.75444C 70.7631 -6.07225 70.2478 -6.07225 69.93 -5.75444C 69.6122 -5.43663 69.6122 -4.92136 69.93 -4.60355L 74.5336 0L 69.93 4.60355C 69.6122 4.92136 69.6122 5.43663 69.93 5.75444C 70.2478 6.07225 70.7631 6.07225 71.0809 5.75444L 76.2599 0.575444ZM 0 0.8138L 75.6845 0.8138L 75.6845 -0.8138L 0 -0.8138L 0 0.8138Z" transform="translate(103.333 103.352) scale(1 -1)" fill="black"/>
</g>
<g id="Arrow_2">
<path d="M 76.2599 0.575444C 76.5777 0.257635 76.5777 -0.257635 76.2599 -0.575444L 71.0809 -5.75444C 70.7631 -6.07225 70.2478 -6.07225 69.93 -5.75444C 69.6122 -5.43663 69.6122 -4.92136 69.93 -4.60355L 74.5336 0L 69.93 4.60355C 69.6122 4.92136 69.6122 5.43663 69.93 5.75444C 70.2478 6.07225 70.7631 6.07225 71.0809 5.75444L 76.2599 0.575444ZM 0 0.8138L 75.6845 0.8138L 75.6845 -0.8138L 0 -0.8138L 0 0.8138Z" transform="translate(103.333 39.062) scale(1 -1)" fill="black"/>
</g>
<g id="Arrow_3">
<path d="M 76.2599 0.575444C 76.5777 0.257635 76.5777 -0.257635 76.2599 -0.575444L 71.0809 -5.75444C 70.7631 -6.07225 70.2478 -6.07225 69.93 -5.75444C 69.6122 -5.43663 69.6122 -4.92136 69.93 -4.60355L 74.5336 0L 69.93 4.60355C 69.6122 4.92136 69.6122 5.43663 69.93 5.75444C 70.2478 6.07225 70.7631 6.07225 71.0809 5.75444L 76.2599 0.575444ZM 0 0.8138L 75.6845 0.8138L 75.6845 -0.8138L 0 -0.8138L 0 0.8138Z" transform="translate(56.9453 72.4277) scale(1 -1)" fill="black"/>
</g>
<g id="Group 9.1">
<g id="Rectangle 11.22" filter="url(#filter0_d)">
<rect width="31.7385" height="31.7379" rx="0.831325" transform="translate(139.141 56.1519)" fill="white"/>
</g>
<g id="Settings">
<g id="Rectangle">
<rect width="5.21132" height="5.95587" transform="matrix(0 -1 1 0 144.959 82.0708)" fill="white"/>
<rect x="0.774258" y="0.774258" width="3.6628" height="4.40735" stroke-width="1.54852" transform="matrix(0 -1 1 0 144.959 82.0708)" stroke="black"/>
</g>
<g id="Rectangle_2">
<rect width="5.21132" height="5.95587" transform="matrix(0 -1 1 0 152.032 70.1592)" fill="white"/>
<rect x="0.774258" y="0.774258" width="3.6628" height="4.40735" stroke-width="1.54852" transform="matrix(0 -1 1 0 152.032 70.1592)" stroke="black"/>
</g>
<g id="Rectangle_3">
<rect width="5.21132" height="5.95587" transform="matrix(0 -1 1 0 159.105 77.2319)" fill="white"/>
<rect x="0.774258" y="0.774258" width="3.6628" height="4.40735" stroke-width="1.54852" transform="matrix(0 -1 1 0 159.105 77.2319)" stroke="black"/>
</g>
<g id="Line">
<line x1="0.774302" y1="-0.774302" x2="14.6306" y2="-0.774302" stroke-width="1.5486" stroke-linecap="round" transform="matrix(0 -1 1 0 148.806 77.7759)" stroke="black"/>
</g>
<g id="Line_2">
<line x1="0.774302" y1="-0.774302" x2="9.27613" y2="-0.774302" stroke-width="1.5486" stroke-linecap="round" transform="matrix(0 -1 1 0 162.765 72.7942)" stroke="black"/>
</g>
<g id="Line_3">
<line x1="0.774302" y1="-0.774302" x2="5.38194" y2="-0.774302" stroke-width="1.5486" stroke-linecap="round" transform="matrix(0 -1 1 0 162.765 82.071)" stroke="black"/>
</g>
<g id="Line_4">
<line x1="0.774302" y1="-0.774302" x2="11.9677" y2="-0.774302" stroke-width="1.5486" stroke-linecap="round" transform="matrix(0 -1 1 0 155.785 82.071)" stroke="black"/>
</g>
<g id="Line_5">
<line x1="0.774302" y1="-0.774302" x2="3.09125" y2="-0.774302" stroke-width="1.5486" stroke-linecap="round" transform="matrix(0 -1 1 0 155.785 65.8359)" stroke="black"/>
</g>
</g>
<g id="Rectangle 11.23" filter="url(#filter1_d)">
<rect width="31.7385" height="31.7379" rx="0.831325" transform="translate(183.9 86.262)" fill="white"/>
</g>
<g id="Settings_2">
<g id="Rectangle_4">
<rect width="5.21132" height="5.95587" transform="matrix(0 -1 1 0 189.719 112.181)" fill="white"/>
<rect x="0.774258" y="0.774258" width="3.6628" height="4.40735" stroke-width="1.54852" transform="matrix(0 -1 1 0 189.719 112.181)" stroke="black"/>
</g>
<g id="Rectangle_5">
<rect width="5.21132" height="5.95587" transform="matrix(0 -1 1 0 196.791 100.27)" fill="white"/>
<rect x="0.774258" y="0.774258" width="3.6628" height="4.40735" stroke-width="1.54852" transform="matrix(0 -1 1 0 196.791 100.27)" stroke="black"/>
</g>
<g id="Rectangle_6">
<rect width="5.21132" height="5.95587" transform="matrix(0 -1 1 0 203.864 107.342)" fill="white"/>
<rect x="0.774258" y="0.774258" width="3.6628" height="4.40735" stroke-width="1.54852" transform="matrix(0 -1 1 0 203.864 107.342)" stroke="black"/>
</g>
<g id="Line_6">
<line x1="0.774302" y1="-0.774302" x2="14.6306" y2="-0.774302" stroke-width="1.5486" stroke-linecap="round" transform="matrix(0 -1 1 0 193.565 107.886)" stroke="black"/>
</g>
<g id="Line_7">
<line x1="0.774302" y1="-0.774302" x2="9.27613" y2="-0.774302" stroke-width="1.5486" stroke-linecap="round" transform="matrix(0 -1 1 0 207.524 102.905)" stroke="black"/>
</g>
<g id="Line_8">
<line x1="0.774302" y1="-0.774302" x2="5.38194" y2="-0.774302" stroke-width="1.5486" stroke-linecap="round" transform="matrix(0 -1 1 0 207.524 112.181)" stroke="black"/>
</g>
<g id="Line_9">
<line x1="0.774302" y1="-0.774302" x2="11.9677" y2="-0.774302" stroke-width="1.5486" stroke-linecap="round" transform="matrix(0 -1 1 0 200.544 112.181)" stroke="black"/>
</g>
<g id="Line_10">
<line x1="0.774302" y1="-0.774302" x2="3.09125" y2="-0.774302" stroke-width="1.5486" stroke-linecap="round" transform="matrix(0 -1 1 0 200.544 95.9463)" stroke="black"/>
</g>
</g>
</g>
<g id="Group 6.2">
<g id="Ellipse 3">
<ellipse cx="3.66213" cy="3.66207" rx="3.66213" ry="3.66207" transform="translate(135.885 52.897)" fill="white"/>
<g mask="url(#path25_ins)" transform="translate(135.885 52.897)">
<ellipse cx="3.66213" cy="3.66207" rx="3.66213" ry="3.66207" stroke-width="1.6276" stroke="#C3C3C3"/>
</g>
</g>
<g id="Ellipse 3.2">
<ellipse cx="3.66213" cy="3.66207" rx="3.66213" ry="3.66207" transform="translate(135.885 84.6345)" fill="white"/>
<g mask="url(#path26_ins)" transform="translate(135.885 84.6345)">
<ellipse cx="3.66213" cy="3.66207" rx="3.66213" ry="3.66207" stroke-width="1.6276" stroke="#C3C3C3"/>
</g>
</g>
<g id="Ellipse 3.1">
<ellipse cx="3.66213" cy="3.66207" rx="3.66213" ry="3.66207" transform="translate(167.624 52.8965)" fill="white"/>
<g mask="url(#path27_ins)" transform="translate(167.624 52.8965)">
<ellipse cx="3.66213" cy="3.66207" rx="3.66213" ry="3.66207" stroke-width="1.6276" stroke="#C3C3C3"/>
</g>
</g>
<g id="Ellipse 3.3">
<ellipse cx="3.66213" cy="3.66207" rx="3.66213" ry="3.66207" transform="translate(167.624 84.6345)" fill="white"/>
<g mask="url(#path28_ins)" transform="translate(167.624 84.6345)">
<ellipse cx="3.66213" cy="3.66207" rx="3.66213" ry="3.66207" stroke-width="1.6276" stroke="#C3C3C3"/>
</g>
</g>
</g>
<g id="Rectangle 11.24" filter="url(#filter2_d)">
<rect width="46.387" height="46.3862" rx="1.21501" transform="translate(185.527 23.6001)" fill="url(#paint0_linear)"/>
</g>
<g id="Settings_3">
<g id="Rectangle_7">
<rect width="7.61655" height="8.70473" transform="matrix(0 -1 1 0 194.031 61.4824)" fill="white"/>
<rect x="1.13161" y="1.13161" width="5.35333" height="6.44151" stroke-width="2.26322" transform="matrix(0 -1 1 0 194.031 61.4824)" stroke="black"/>
</g>
<g id="Rectangle_8">
<rect width="7.61655" height="8.70473" transform="matrix(0 -1 1 0 204.369 44.0735)" fill="white"/>
<rect x="1.13161" y="1.13161" width="5.35333" height="6.44151" stroke-width="2.26322" transform="matrix(0 -1 1 0 204.369 44.0735)" stroke="black"/>
</g>
<g id="Rectangle_9">
<rect width="7.61655" height="8.70473" transform="matrix(0 -1 1 0 214.706 54.4097)" fill="white"/>
<rect x="1.13161" y="1.13161" width="5.35333" height="6.44151" stroke-width="2.26322" transform="matrix(0 -1 1 0 214.706 54.4097)" stroke="black"/>
</g>
<g id="Line_11">
<line x1="1.13167" y1="-1.13167" x2="21.3832" y2="-1.13167" stroke-width="2.26334" stroke-linecap="round" transform="matrix(0 -1 1 0 199.653 55.2056)" stroke="black"/>
</g>
<g id="Line_12">
<line x1="1.13167" y1="-1.13167" x2="13.5574" y2="-1.13167" stroke-width="2.26334" stroke-linecap="round" transform="matrix(0 -1 1 0 220.054 47.9241)" stroke="black"/>
</g>
<g id="Line_13">
<line x1="1.13167" y1="-1.13167" x2="7.86591" y2="-1.13167" stroke-width="2.26334" stroke-linecap="round" transform="matrix(0 -1 1 0 220.054 61.4824)" stroke="black"/>
</g>
<g id="Line_14">
<line x1="1.13167" y1="-1.13167" x2="17.4912" y2="-1.13167" stroke-width="2.26334" stroke-linecap="round" transform="matrix(0 -1 1 0 209.854 61.4824)" stroke="black"/>
</g>
<g id="Line_15">
<line x1="1.13167" y1="-1.13167" x2="4.51798" y2="-1.13167" stroke-width="2.26334" stroke-linecap="round" transform="matrix(0 -1 1 0 209.854 37.7537)" stroke="black"/>
</g>
</g>
<g id="Group 10.1">
<g id="Rectangle 11.22_2" filter="url(#filter3_d)">
<rect width="31.7385" height="31.7379" rx="0.831325" transform="translate(209.941 46.3862)" fill="url(#paint1_linear)"/>
</g>
<g id="Settings_4">
<g id="Rectangle_10">
<rect width="5.21132" height="5.95587" transform="matrix(0 -1 1 0 215.76 72.3052)" fill="white"/>
<rect x="0.774258" y="0.774258" width="3.6628" height="4.40735" stroke-width="1.54852" transform="matrix(0 -1 1 0 215.76 72.3052)" stroke="black"/>
</g>
<g id="Rectangle_11">
<rect width="5.21132" height="5.95587" transform="matrix(0 -1 1 0 222.833 60.3938)" fill="white"/>
<rect x="0.774258" y="0.774258" width="3.6628" height="4.40735" stroke-width="1.54852" transform="matrix(0 -1 1 0 222.833 60.3938)" stroke="black"/>
</g>
<g id="Rectangle_12">
<rect width="5.21132" height="5.95587" transform="matrix(0 -1 1 0 229.906 67.4666)" fill="white"/>
<rect x="0.774258" y="0.774258" width="3.6628" height="4.40735" stroke-width="1.54852" transform="matrix(0 -1 1 0 229.906 67.4666)" stroke="black"/>
</g>
<g id="Line_16">
<line x1="0.774302" y1="-0.774302" x2="14.6306" y2="-0.774302" stroke-width="1.5486" stroke-linecap="round" transform="matrix(0 -1 1 0 219.607 68.0105)" stroke="black"/>
</g>
<g id="Line_17">
<line x1="0.774302" y1="-0.774302" x2="9.27613" y2="-0.774302" stroke-width="1.5486" stroke-linecap="round" transform="matrix(0 -1 1 0 233.565 63.0288)" stroke="black"/>
</g>
<g id="Line_18">
<line x1="0.774302" y1="-0.774302" x2="5.38194" y2="-0.774302" stroke-width="1.5486" stroke-linecap="round" transform="matrix(0 -1 1 0 233.565 72.3054)" stroke="black"/>
</g>
<g id="Line_19">
<line x1="0.774302" y1="-0.774302" x2="11.9677" y2="-0.774302" stroke-width="1.5486" stroke-linecap="round" transform="matrix(0 -1 1 0 226.586 72.3054)" stroke="black"/>
</g>
<g id="Line_20">
<line x1="0.774302" y1="-0.774302" x2="3.09125" y2="-0.774302" stroke-width="1.5486" stroke-linecap="round" transform="matrix(0 -1 1 0 226.586 56.0706)" stroke="black"/>
</g>
</g>
</g>
<g id="Rectangle 11.25" filter="url(#filter4_d)">
<rect width="97.6569" height="97.6552" rx="2.55792" transform="translate(13 19.5312)" fill="white"/>
</g>
<g id="Settings_5">
<g id="Rectangle_13">
<rect width="11.3931" height="13.0209" transform="matrix(0 -1 1 0 39.8555 90.3311)" fill="white"/>
<rect x="1.6927" y="1.6927" width="8.00769" height="9.63551" stroke-width="3.38541" transform="matrix(0 -1 1 0 39.8555 90.3311)" stroke="black"/>
</g>
<g id="Rectangle_14">
<rect width="11.3931" height="13.0209" transform="matrix(0 -1 1 0 55.3179 64.2896)" fill="white"/>
<rect x="1.6927" y="1.6927" width="8.00769" height="9.63551" stroke-width="3.38541" transform="matrix(0 -1 1 0 55.3179 64.2896)" stroke="black"/>
</g>
<g id="Rectangle_15">
<rect width="11.3931" height="13.0209" transform="matrix(0 -1 1 0 70.7803 79.7517)" fill="white"/>
<rect x="1.6927" y="1.6927" width="8.00769" height="9.63551" stroke-width="3.38541" transform="matrix(0 -1 1 0 70.7803 79.7517)" stroke="black"/>
</g>
<g id="Line_21">
<line x1="1.6928" y1="-1.6928" x2="31.9858" y2="-1.6928" stroke-width="3.3856" stroke-linecap="round" transform="matrix(0 -1 1 0 48.2639 80.9414)" stroke="black"/>
</g>
<g id="Line_22">
<line x1="1.6928" y1="-1.6928" x2="20.2797" y2="-1.6928" stroke-width="3.3856" stroke-linecap="round" transform="matrix(0 -1 1 0 78.7825 70.0493)" stroke="black"/>
</g>
<g id="Line_23">
<line x1="1.6928" y1="-1.6928" x2="11.7661" y2="-1.6928" stroke-width="3.3856" stroke-linecap="round" transform="matrix(0 -1 1 0 78.7825 90.3311)" stroke="black"/>
</g>
<g id="Line_24">
<line x1="1.6928" y1="-1.6928" x2="26.164" y2="-1.6928" stroke-width="3.3856" stroke-linecap="round" transform="matrix(0 -1 1 0 63.5237 90.3311)" stroke="black"/>
</g>
<g id="Line_25">
<line x1="1.6928" y1="-1.6928" x2="6.75815" y2="-1.6928" stroke-width="3.3856" stroke-linecap="round" transform="matrix(0 -1 1 0 63.5234 54.8374)" stroke="black"/>
</g>
</g>
<g id="Ellipse 3.2_2">
<ellipse cx="15.8692" cy="15.869" rx="15.8692" ry="15.869" transform="translate(46.3662 0)" fill="#FFBC3B"/>
</g>
<g id="Group 2.2">
<g id="Reply">
<g id="Rectangle 25">
<path d="M 6.43676 -5.98956e-08L 6.89652 6.89652L 0 6.43676" stroke-width="1.30042" stroke-linecap="round" stroke-linejoin="round" transform="matrix(0.707638 -0.706575 0.707638 0.706575 60.8479 14.6384)" stroke="black"/>
</g>
</g>
<g id="Reply_2">
<g id="Rectangle 25_2">
<path d="M 6.43676 -5.98956e-08L 6.89652 6.89652L 0 6.43676" stroke-width="1.30042" stroke-linecap="round" stroke-linejoin="round" transform="matrix(0.707638 -0.706576 0.707638 0.706576 56.9441 14.6384)" stroke="black"/>
</g>
<g id="Vector 7">
<path d="M -0.65021 6.49722C -0.65021 6.85632 -0.359101 7.14743 0 7.14743C 0.359101 7.14743 0.65021 6.85632 0.65021 6.49722L -0.65021 6.49722ZM 13.014 -0.65021L 5.20168 -0.65021L 5.20168 0.65021L 13.014 0.65021L 13.014 -0.65021ZM -0.65021 5.20168L -0.65021 6.49722L 0.65021 6.49722L 0.65021 5.20168L -0.65021 5.20168ZM 5.20168 -0.65021C 1.96977 -0.65021 -0.65021 1.96977 -0.65021 5.20168L 0.65021 5.20168C 0.65021 2.68797 2.68797 0.65021 5.20168 0.65021L 5.20168 -0.65021Z" transform="translate(53.6904 14.6389)" fill="black"/>
</g>
</g>
</g>
</g>
</g>
</g>
<defs>
<filter id="filter0_d" x="134.984" y="52.8266" width="40.0517" height="40.0512" filterUnits="userSpaceOnUse" color-interpolation-filters="sRGB">
<feFlood flood-opacity="0" result="BackgroundImageFix"/>
<feColorMatrix in="SourceAlpha" type="matrix" values="0 0 0 0 0 0 0 0 0 0 0 0 0 0 0 0 0 0 255 0"/>
<feOffset dy="0.831325"/>
<feGaussianBlur stdDeviation="2.07831"/>
<feColorMatrix type="matrix" values="0 0 0 0 0 0 0 0 0 0 0 0 0 0 0 0 0 0 0.15 0"/>
<feBlend mode="normal" in2="BackgroundImageFix" result="effect1_dropShadow"/>
<feBlend mode="normal" in="SourceGraphic" in2="effect1_dropShadow" result="shape"/>
</filter>
<filter id="filter1_d" x="179.743" y="82.9367" width="40.0517" height="40.0512" filterUnits="userSpaceOnUse" color-interpolation-filters="sRGB">
<feFlood flood-opacity="0" result="BackgroundImageFix"/>
<feColorMatrix in="SourceAlpha" type="matrix" values="0 0 0 0 0 0 0 0 0 0 0 0 0 0 0 0 0 0 255 0"/>
<feOffset dy="0.831325"/>
<feGaussianBlur stdDeviation="2.07831"/>
<feColorMatrix type="matrix" values="0 0 0 0 0 0 0 0 0 0 0 0 0 0 0 0 0 0 0.15 0"/>
<feBlend mode="normal" in2="BackgroundImageFix" result="effect1_dropShadow"/>
<feBlend mode="normal" in="SourceGraphic" in2="effect1_dropShadow" result="shape"/>
</filter>
<filter id="filter2_d" x="179.452" y="18.74" width="58.5372" height="58.5363" filterUnits="userSpaceOnUse" color-interpolation-filters="sRGB">
<feFlood flood-opacity="0" result="BackgroundImageFix"/>
<feColorMatrix in="SourceAlpha" type="matrix" values="0 0 0 0 0 0 0 0 0 0 0 0 0 0 0 0 0 0 255 0"/>
<feOffset dy="1.21501"/>
<feGaussianBlur stdDeviation="3.03753"/>
<feColorMatrix type="matrix" values="0 0 0 0 0 0 0 0 0 0 0 0 0 0 0 0 0 0 0.15 0"/>
<feBlend mode="normal" in2="BackgroundImageFix" result="effect1_dropShadow"/>
<feBlend mode="normal" in="SourceGraphic" in2="effect1_dropShadow" result="shape"/>
</filter>
<filter id="filter3_d" x="205.785" y="43.0609" width="40.0517" height="40.0512" filterUnits="userSpaceOnUse" color-interpolation-filters="sRGB">
<feFlood flood-opacity="0" result="BackgroundImageFix"/>
<feColorMatrix in="SourceAlpha" type="matrix" values="0 0 0 0 0 0 0 0 0 0 0 0 0 0 0 0 0 0 255 0"/>
<feOffset dy="0.831325"/>
<feGaussianBlur stdDeviation="2.07831"/>
<feColorMatrix type="matrix" values="0 0 0 0 0 0 0 0 0 0 0 0 0 0 0 0 0 0 0.2 0"/>
<feBlend mode="normal" in2="BackgroundImageFix" result="effect1_dropShadow"/>
<feBlend mode="normal" in="SourceGraphic" in2="effect1_dropShadow" result="shape"/>
</filter>
<filter id="filter4_d" x="0.210388" y="9.29956" width="123.236" height="123.234" filterUnits="userSpaceOnUse" color-interpolation-filters="sRGB">
<feFlood flood-opacity="0" result="BackgroundImageFix"/>
<feColorMatrix in="SourceAlpha" type="matrix" values="0 0 0 0 0 0 0 0 0 0 0 0 0 0 0 0 0 0 255 0"/>
<feOffset dy="2.55792"/>
<feGaussianBlur stdDeviation="6.39481"/>
<feColorMatrix type="matrix" values="0 0 0 0 0 0 0 0 0 0 0 0 0 0 0 0 0 0 0.15 0"/>
<feBlend mode="normal" in2="BackgroundImageFix" result="effect1_dropShadow"/>
<feBlend mode="normal" in="SourceGraphic" in2="effect1_dropShadow" result="shape"/>
</filter>

<linearGradient id="paint0_linear" x2="1" gradientUnits="userSpaceOnUse" gradientTransform="matrix(0 46.3862 -46.387 0 46.387 0)">
<stop stop-color="white"/>
<stop offset="1" stop-color="white" stop-opacity="0.75"/>
</linearGradient>
<linearGradient id="paint1_linear" x2="1" gradientUnits="userSpaceOnUse" gradientTransform="matrix(0 31.7379 -31.7385 0 31.7385 0)">
<stop stop-color="white"/>
<stop offset="1" stop-color="white" stop-opacity="0.75"/>
</linearGradient>

<mask id="path25_ins" fill="white">
<ellipse cx="3.66213" cy="3.66207" rx="3.66213" ry="3.66207"/>
</mask>
<mask id="path26_ins" fill="white">
<ellipse cx="3.66213" cy="3.66207" rx="3.66213" ry="3.66207"/>
</mask>
<mask id="path27_ins" fill="white">
<ellipse cx="3.66213" cy="3.66207" rx="3.66213" ry="3.66207"/>
</mask>
<mask id="path28_ins" fill="white">
<ellipse cx="3.66213" cy="3.66207" rx="3.66213" ry="3.66207"/>
</mask>

</defs>
</svg>

