<svg width="273" height="140" viewBox="0 0 273 140" version="1.1" xmlns="http://www.w3.org/2000/svg" xmlns:xlink="http://www.w3.org/1999/xlink">
<g id="Canvas" fill="none">
<g id="Frame 5">
<g id="Group 32.1">
<g id="Arrow 2">
<path d="M 39.0656 0.580095C 39.386 0.259717 39.386 -0.259717 39.0656 -0.580095L 33.8447 -5.80095C 33.5244 -6.12132 33.0049 -6.12132 32.6846 -5.80095C 32.3642 -5.48057 32.3642 -4.96113 32.6846 -4.64076L 37.3253 0L 32.6846 4.64076C 32.3642 4.96113 32.3642 5.48057 32.6846 5.80095C 33.0049 6.12132 33.5244 6.12132 33.8447 5.80095L 39.0656 0.580095ZM 0 0.820378L 38.4855 0.820378L 38.4855 -0.820378L 0 -0.820378L 0 0.820378Z" transform="translate(94.884 70.6851)" fill="black"/>
</g>
<g id="Group">
<g id="Rectangle 11.19" filter="url(#filter0_d)">
<rect width="98.2609" height="98.6301" rx="2.5786" transform="translate(13 21.3701)" fill="white"/>
</g>
<g id="Settings">
<g id="Ellipse">
<ellipse cx="5.10202" cy="5.13693" rx="5.10202" ry="5.13693" transform="translate(41.7236 50.1367)" fill="white"/>
<ellipse cx="5.10202" cy="5.13693" rx="5.10202" ry="5.13693" stroke-width="3.41296" transform="translate(41.7236 50.1367)" stroke="black"/>
</g>
<g id="Line">
<line x1="1.70648" y1="-1.70648" x2="28.9056" y2="-1.70648" stroke-width="3.41296" stroke-linecap="round" transform="translate(51.9263 56.9854)" stroke="black"/>
</g>
<g id="Ellipse_2">
<ellipse cx="5.10202" cy="5.13693" rx="5.10202" ry="5.13693" transform="translate(50.2263 80.9587)" fill="white"/>
<ellipse cx="5.10202" cy="5.13693" rx="5.10202" ry="5.13693" stroke-width="3.41296" transform="translate(50.2263 80.9587)" stroke="black"/>
</g>
<g id="Line_2">
<line x1="1.70648" y1="-1.70648" x2="20.4023" y2="-1.70648" stroke-width="3.41296" stroke-linecap="round" transform="translate(60.429 87.8074)" stroke="black"/>
</g>
<g id="Line_3">
<line x1="1.70648" y1="-1.70648" x2="10.1982" y2="-1.70648" stroke-width="3.41296" stroke-linecap="round" transform="translate(40.022 87.8074)" stroke="black"/>
</g>
<g id="Ellipse_3">
<ellipse cx="5.10202" cy="5.13693" rx="5.10202" ry="5.13693" transform="translate(65.5315 65.5479)" fill="white"/>
<ellipse cx="5.10202" cy="5.13693" rx="5.10202" ry="5.13693" stroke-width="3.41296" transform="translate(65.5315 65.5479)" stroke="black"/>
</g>
<g id="Line_4">
<line x1="1.70648" y1="-1.70648" x2="25.5043" y2="-1.70648" stroke-width="3.41296" stroke-linecap="round" transform="translate(40.022 72.3962)" stroke="black"/>
</g>
<g id="Line_5">
<line x1="1.70648" y1="-1.70648" x2="6.79688" y2="-1.70648" stroke-width="3.41296" stroke-linecap="round" transform="translate(75.7358 72.3962)" stroke="black"/>
</g>
</g>
<g id="Rectangle 11.20" filter="url(#filter1_d)">
<rect width="98.2609" height="98.6301" rx="2.5786" transform="translate(140.739 21.3699)" fill="white"/>
</g>
<g id="Settings_2">
<g id="Rectangle">
<rect width="11.5068" height="13.1014" transform="matrix(0 -1 1 0 167.761 92.8757)" fill="white"/>
<rect x="1.70639" y="1.70639" width="8.09408" height="9.68868" stroke-width="3.41277" transform="matrix(0 -1 1 0 167.761 92.8757)" stroke="black"/>
</g>
<g id="Rectangle_2">
<rect width="11.5068" height="13.1014" transform="matrix(0 -1 1 0 183.319 66.575)" fill="white"/>
<rect x="1.70639" y="1.70639" width="8.09408" height="9.68868" stroke-width="3.41277" transform="matrix(0 -1 1 0 183.319 66.575)" stroke="black"/>
</g>
<g id="Rectangle_3">
<rect width="11.5068" height="13.1014" transform="matrix(0 -1 1 0 198.877 82.1917)" fill="white"/>
<rect x="1.70639" y="1.70639" width="8.09408" height="9.68868" stroke-width="3.41277" transform="matrix(0 -1 1 0 198.877 82.1917)" stroke="black"/>
</g>
<g id="Line_6">
<line x1="1.70648" y1="-1.70648" x2="32.3083" y2="-1.70648" stroke-width="3.41296" stroke-linecap="round" transform="matrix(0 -1 1 0 176.221 83.3931)" stroke="black"/>
</g>
<g id="Line_7">
<line x1="1.70648" y1="-1.70648" x2="20.4854" y2="-1.70648" stroke-width="3.41296" stroke-linecap="round" transform="matrix(0 -1 1 0 206.928 72.3923)" stroke="black"/>
</g>
<g id="Line_8">
<line x1="1.70648" y1="-1.70648" x2="11.8868" y2="-1.70648" stroke-width="3.41296" stroke-linecap="round" transform="matrix(0 -1 1 0 206.928 92.8765)" stroke="black"/>
</g>
<g id="Line_9">
<line x1="1.70648" y1="-1.70648" x2="26.4285" y2="-1.70648" stroke-width="3.41296" stroke-linecap="round" transform="matrix(0 -1 1 0 191.575 92.8765)" stroke="black"/>
</g>
<g id="Line_10">
<line x1="1.70648" y1="-1.70648" x2="6.82884" y2="-1.70648" stroke-width="3.41296" stroke-linecap="round" transform="matrix(0 -1 1 0 191.575 57.0283)" stroke="black"/>
</g>
</g>
</g>
<g id="Ellipse 3.2">
<ellipse cx="15.9674" cy="16.0274" rx="15.9674" ry="16.0274" transform="translate(173.493 0)" fill="#FFBC3B"/>
</g>
<g id="Ellipse 9.1">
<path d="M 17.0228 5.24967C 17.0228 5.90588 13.2121 10.4993 8.5114 10.4993C 3.81068 10.4993 0 5.90588 0 5.24967C 0 4.59346 3.81068 0 8.5114 0C 13.2121 0 17.0228 4.59346 17.0228 5.24967Z" stroke-width="1.31093" transform="translate(180.862 10.6851)" stroke="black"/>
</g>
<g id="Ellipse 11.1">
<ellipse cx="2.86594" cy="2.87671" rx="2.86594" ry="2.87671" transform="translate(186.594 13.1506)" fill="black"/>
<ellipse cx="2.86594" cy="2.87671" rx="2.86594" ry="2.87671" stroke-width="0.957107" transform="translate(186.594 13.1506)" stroke="black"/>
</g>
</g>
</g>
</g>
<defs>
<filter id="filter0_d" x="0.107018" y="11.0557" width="124.047" height="124.416" filterUnits="userSpaceOnUse" color-interpolation-filters="sRGB">
<feFlood flood-opacity="0" result="BackgroundImageFix"/>
<feColorMatrix in="SourceAlpha" type="matrix" values="0 0 0 0 0 0 0 0 0 0 0 0 0 0 0 0 0 0 255 0"/>
<feOffset dy="2.5786"/>
<feGaussianBlur stdDeviation="6.44649"/>
<feColorMatrix type="matrix" values="0 0 0 0 0 0 0 0 0 0 0 0 0 0 0 0 0 0 0.15 0"/>
<feBlend mode="normal" in2="BackgroundImageFix" result="effect1_dropShadow"/>
<feBlend mode="normal" in="SourceGraphic" in2="effect1_dropShadow" result="shape"/>
</filter>
<filter id="filter1_d" x="127.846" y="11.0555" width="124.047" height="124.416" filterUnits="userSpaceOnUse" color-interpolation-filters="sRGB">
<feFlood flood-opacity="0" result="BackgroundImageFix"/>
<feColorMatrix in="SourceAlpha" type="matrix" values="0 0 0 0 0 0 0 0 0 0 0 0 0 0 0 0 0 0 255 0"/>
<feOffset dy="2.5786"/>
<feGaussianBlur stdDeviation="6.44649"/>
<feColorMatrix type="matrix" values="0 0 0 0 0 0 0 0 0 0 0 0 0 0 0 0 0 0 0.15 0"/>
<feBlend mode="normal" in2="BackgroundImageFix" result="effect1_dropShadow"/>
<feBlend mode="normal" in="SourceGraphic" in2="effect1_dropShadow" result="shape"/>
</filter>

</defs>
</svg>

