<svg width="1330" height="117" viewBox="0 0 1330 117" version="1.1" xmlns="http://www.w3.org/2000/svg" xmlns:xlink="http://www.w3.org/1999/xlink">
<g id="Canvas" fill="none">
<g id="Frame 8" clip-path="url(#clip0)">
<rect width="1330" height="117" fill="white"/>
<g id="Group">
<g id="Arrow 2">
<path d="M 53.7886 173.265L 55.2675 174.611L 55.2675 174.611L 53.7886 173.265ZM 5.21139 226.619L 3.73253 225.272L 3.73253 225.272L 5.21139 226.619ZM 5.30739 559.403L 6.77665 558.046L 6.77664 558.046L 5.30739 559.403ZM 57 0L 57 159.8L 61 159.8L 61 0L 57 0ZM 52.3098 171.918L 3.73253 225.272L 6.69025 227.965L 55.2675 174.611L 52.3098 171.918ZM -2 240.083L -2 545.833L 2 545.833L 2 240.083L -2 240.083ZM 3.83813 560.76L 29.0307 588.038L 31.9693 585.324L 6.77665 558.046L 3.83813 560.76ZM -2 545.833C -2 551.366 0.0844938 556.695 3.83813 560.76L 6.77664 558.046C 3.7055 554.72 2 550.36 2 545.833L -2 545.833ZM 3.73253 225.272C 0.0441577 229.323 -2 234.605 -2 240.083L 2 240.083C 2 235.601 3.67249 231.28 6.69025 227.965L 3.73253 225.272ZM 57 159.8C 57 164.283 55.3275 168.604 52.3098 171.918L 55.2675 174.611C 58.9558 170.56 61 165.279 61 159.8L 57 159.8Z" transform="matrix(0 1 -1 0 1157.18 32)" fill="#02B0D6"/>
</g>
<g id="Vector 2.2">
<path d="M 0 44L 38.1421 5.85787C 41.8929 2.10714 46.9799 0 52.2843 0L 282 0" stroke-width="4" transform="translate(1005 19)" stroke="#F45247"/>
</g>
<g id="Arrow 2.3">
<path d="M 1074.41 1.91487C 1075.19 1.13419 1075.2 -0.132142 1074.41 -0.913554L 1061.69 -13.6474C 1060.91 -14.4288 1059.65 -14.4294 1058.86 -13.6487C 1058.08 -12.868 1058.08 -11.6017 1058.86 -10.8203L 1070.17 0.498682L 1058.85 11.8071C 1058.07 12.5878 1058.07 13.8541 1058.85 14.6355C 1059.63 15.417 1060.9 15.4175 1061.68 14.6369L 1074.41 1.91487ZM -0.000931966 2L 1073 2.5L 1073 -1.5L 0.000931966 -2L -0.000931966 2Z" transform="translate(0 62.5)" fill="#FFBC3B"/>
</g>
<g id="Arrow 3">
<path d="M 429.414 58.4142C 430.195 57.6332 430.195 56.3668 429.414 55.5858L 416.686 42.8579C 415.905 42.0768 414.639 42.0768 413.858 42.8579C 413.077 43.6389 413.077 44.9052 413.858 45.6863L 425.172 57L 413.858 68.3137C 413.077 69.0948 413.077 70.3611 413.858 71.1421C 414.639 71.9232 415.905 71.9232 416.686 71.1421L 429.414 58.4142ZM 174.142 51.1421L 172.728 52.5563L 172.728 52.5563L 174.142 51.1421ZM 128.858 5.85786L 127.444 7.27208L 127.444 7.27208L 128.858 5.85786ZM 188.284 59L 428 59L 428 55L 188.284 55L 188.284 59ZM 175.556 49.7279L 130.272 4.44365L 127.444 7.27208L 172.728 52.5563L 175.556 49.7279ZM 114.716 -2L 0 -2L 0 2L 114.716 2L 114.716 -2ZM 130.272 4.44365C 126.146 0.31785 120.55 -2 114.716 -2L 114.716 2C 119.49 2 124.068 3.89642 127.444 7.27208L 130.272 4.44365ZM 188.284 55C 183.51 55 178.932 53.1036 175.556 49.7279L 172.728 52.5563C 176.854 56.6821 182.45 59 188.284 59L 188.284 55Z" transform="translate(0 37)" fill="#AD52F5"/>
</g>
<g id="Rectangle 15.8">
<path d="M 16.9706 0L 18.3852 18.3852L 0 16.9709" stroke-width="4" stroke-linecap="round" stroke-linejoin="bevel" transform="matrix(0.707107 -0.707107 0.707107 0.707107 43 37)" stroke="#AD52F5"/>
</g>
<g id="Rectangle 15.9">
<path d="M 16.9706 0L 18.3852 18.3852L 0 16.9709" stroke-width="4" stroke-linecap="round" stroke-linejoin="bevel" transform="matrix(0.707107 -0.707107 0.707107 0.707107 247 63)" stroke="#FFBC3B"/>
</g>
<g id="Rectangle 15.10">
<path d="M 16.9706 0L 18.3852 18.3852L 0 16.9709" stroke-width="4" stroke-linecap="round" stroke-linejoin="bevel" transform="matrix(0.707107 -0.707107 0.707107 0.707107 761 63)" stroke="#FFC047"/>
</g>
<g id="Rectangle 15.11">
<path d="M 19.7991 0L 19.7994 19.7994L 0 19.7994" stroke-width="4" stroke-linecap="round" stroke-linejoin="round" transform="matrix(0.707107 -0.707107 0.707107 0.707107 1261 19)" stroke="#F45247"/>
</g>
<g id="Ellipse">
<circle cx="17" cy="17" r="17" transform="translate(495 46)" fill="white"/>
<circle cx="17" cy="17" r="15" stroke-width="4" transform="translate(495 46)" stroke="#FFBC3B"/>
</g>
<g id="Ellipse_2">
<circle cx="9" cy="9" r="9" transform="translate(503 54)" fill="white"/>
<circle cx="9" cy="9" r="7" stroke-width="4" transform="translate(503 54)" stroke="#FFBC3B"/>
</g>
<g id="Ellipse_3">
<circle cx="17" cy="17" r="17" transform="translate(1140 74)" fill="white"/>
<circle cx="17" cy="17" r="15" stroke-width="4" transform="translate(1140 74)" stroke="#02B0D6"/>
</g>
<g id="Ellipse_4">
<circle cx="9" cy="9" r="9" transform="translate(1148 82)" fill="white"/>
<circle cx="9" cy="9" r="7" stroke-width="4" transform="translate(1148 82)" stroke="#02B0D6"/>
</g>
<g id="Rectangle 16.14">
<path fill-rule="evenodd" clip-rule="evenodd" d="M 12.1422 2L 2.00001 2L 2.00003 12.1421L 12.1421 12.1422L 12.1422 2Z" transform="matrix(0.707107 -0.707107 0.707107 0.707107 678 32)" fill="white"/>
<path fill-rule="evenodd" clip-rule="evenodd" d="M 12.1422 2L 2.00001 2L 2.00003 12.1421L 12.1421 12.1422L 12.1422 2Z" stroke-width="4" stroke-miterlimit="8" transform="matrix(0.707107 -0.707107 0.707107 0.707107 678 32)" stroke="#02B0D6"/>
</g>
<g id="Rectangle 16.15">
<path fill-rule="evenodd" clip-rule="evenodd" d="M 12.1422 2L 2.00001 2L 2.00003 12.1421L 12.1421 12.1422L 12.1422 2Z" transform="matrix(0.707107 -0.707107 0.707107 0.707107 838 32)" fill="#02B0D6"/>
<path fill-rule="evenodd" clip-rule="evenodd" d="M 12.1422 2L 2.00001 2L 2.00003 12.1421L 12.1421 12.1422L 12.1422 2Z" stroke-width="4" stroke-miterlimit="8" transform="matrix(0.707107 -0.707107 0.707107 0.707107 838 32)" stroke="#02B0D6"/>
</g>
<g id="Rectangle 16.16">
<path fill-rule="evenodd" clip-rule="evenodd" d="M 12.1422 2L 2.00001 2L 2.00003 12.1421L 12.1421 12.1422L 12.1422 2Z" transform="matrix(0.707107 -0.707107 0.707107 0.707107 340 94)" fill="white"/>
<path fill-rule="evenodd" clip-rule="evenodd" d="M 12.1422 2L 2.00001 2L 2.00003 12.1421L 12.1421 12.1422L 12.1422 2Z" stroke-width="4" stroke-miterlimit="8" transform="matrix(0.707107 -0.707107 0.707107 0.707107 340 94)" stroke="#A847F4"/>
</g>
<g id="Rectangle 16.17">
<path fill-rule="evenodd" clip-rule="evenodd" d="M 12.1422 2L 2.00001 2L 2.00003 12.1421L 12.1421 12.1422L 12.1422 2Z" transform="matrix(0.707107 -0.707107 0.707107 0.707107 1148 19)" fill="white"/>
<path fill-rule="evenodd" clip-rule="evenodd" d="M 12.1422 2L 2.00001 2L 2.00003 12.1421L 12.1421 12.1422L 12.1422 2Z" stroke-width="4" stroke-miterlimit="8" transform="matrix(0.707107 -0.707107 0.707107 0.707107 1148 19)" stroke="#F45247"/>
</g>
</g>
</g>
</g>
<defs>

<clipPath id="clip0">
<rect width="1330" height="117" fill="white"/>
</clipPath>

</defs>
</svg>

