<svg width="270" height="34" viewBox="0 0 270 34" fill="none" xmlns="http://www.w3.org/2000/svg">
<g id="logo-relay" clip-path="url(#clip0)">
<path id="stroke 1" fill-rule="evenodd" clip-rule="evenodd" d="M5 0V26H0V0H5ZM11.8195 0V26H6.8195V0H11.8195Z" transform="translate(2 2)" fill="#E08214"/>
<path id="stroke 2" d="M9.25699 10.9746C6.36512 14.6408 5 19.8857 5 26H0C0 19.2512 1.4915 12.746 5.33126 7.87804C9.25043 2.9094 15.3356 0 23.7133 0V5C16.5909 5 12.0694 7.40902 9.25699 10.9746Z" transform="translate(15.2871 2)" fill="white"/>
<path id="Relay for Figma" d="M2.13 10.22H5.64L5.97 12.77H6.18C6.52 11.87 6.96 11.16 7.5 10.64C8.04 10.12 8.75 9.86 9.63 9.86C10.01 9.86 10.34 9.9 10.62 9.98C10.92 10.04 11.11 10.09 11.19 10.13V13.97H10.05C8.71 13.97 7.74 14.34 7.14 15.08C6.54 15.8 6.24 16.9 6.24 18.38V26H2.13V10.22ZM20.3002 26.36C17.7602 26.36 15.8602 25.69 14.6002 24.35C13.3602 23.01 12.7402 20.93 12.7402 18.11C12.7402 15.29 13.3602 13.21 14.6002 11.87C15.8602 10.53 17.7602 9.86 20.3002 9.86C22.6402 9.86 24.3902 10.54 25.5502 11.9C26.7102 13.24 27.2902 15.31 27.2902 18.11V19.07H16.9102C16.9502 20.47 17.2302 21.51 17.7502 22.19C18.2702 22.85 19.1402 23.18 20.3602 23.18C21.2202 23.18 21.9102 22.94 22.4302 22.46C22.9702 21.98 23.2402 21.3 23.2402 20.42H27.2902C27.2902 22.4 26.6502 23.89 25.3702 24.89C24.0902 25.87 22.4002 26.36 20.3002 26.36ZM23.0302 16.34C23.0302 14.16 22.1202 13.07 20.3002 13.07C19.2602 13.07 18.4702 13.34 17.9302 13.88C17.4102 14.42 17.0902 15.24 16.9702 16.34H23.0302ZM30.4601 4.31H34.5701V26H30.4601V4.31ZM42.4397 26.36C41.2197 26.36 40.0997 26.04 39.0797 25.4C38.0597 24.76 37.5497 23.6 37.5497 21.92C37.5497 19.9 38.3797 18.47 40.0397 17.63C41.6997 16.77 44.0497 16.34 47.0897 16.34V15.23C47.0897 14.53 46.9297 13.99 46.6097 13.61C46.3097 13.23 45.7297 13.04 44.8697 13.04C43.9497 13.04 43.2897 13.18 42.8897 13.46C42.5097 13.74 42.3197 14.07 42.3197 14.45V14.9H38.3597C38.3397 14.78 38.3297 14.56 38.3297 14.24C38.3297 12.92 38.9097 11.86 40.0697 11.06C41.2497 10.26 42.8097 9.86 44.7497 9.86C46.9097 9.86 48.5197 10.3 49.5797 11.18C50.6597 12.06 51.1997 13.33 51.1997 14.99V21.95C51.1997 22.31 51.2997 22.58 51.4997 22.76C51.6997 22.92 51.9497 23 52.2497 23H53.0897V25.88C52.4497 26.2 51.6597 26.36 50.7197 26.36C49.8997 26.36 49.2097 26.18 48.6497 25.82C48.1097 25.46 47.7397 24.95 47.5397 24.29H47.3597C46.7797 24.97 46.1097 25.49 45.3497 25.85C44.6097 26.19 43.6397 26.36 42.4397 26.36ZM43.7297 23.12C44.8897 23.12 45.7397 22.8 46.2797 22.16C46.8197 21.5 47.0897 20.63 47.0897 19.55V19.07C43.5097 19.07 41.7197 19.87 41.7197 21.47C41.7197 21.97 41.8797 22.37 42.1997 22.67C42.5397 22.97 43.0497 23.12 43.7297 23.12ZM57.8796 31.46C57.3596 31.46 56.8896 31.43 56.4696 31.37C56.0496 31.31 55.7196 31.25 55.4796 31.19C55.2596 31.13 55.1196 31.09 55.0596 31.07V28.19H57.0096C57.7096 28.19 58.2796 28.02 58.7196 27.68C59.1596 27.34 59.5196 26.78 59.7996 26L53.6196 10.22H57.9096L60.8796 17.63C61.0796 18.15 61.2996 18.89 61.5396 19.85C61.7796 20.79 61.9296 21.42 61.9896 21.74H62.1396C62.2196 21.44 62.3596 20.89 62.5596 20.09C62.7796 19.29 63.0096 18.48 63.2496 17.66L65.5896 10.22H69.7596L64.4496 25.19C63.9696 26.51 63.4696 27.61 62.9496 28.49C62.4296 29.39 61.7496 30.11 60.9096 30.65C60.0896 31.19 59.0796 31.46 57.8796 31.46ZM78.6319 18.752H77.3999V17.584H78.6319V16.24C78.6319 15.6853 78.7705 15.2267 79.0479 14.864C79.3252 14.4907 79.7945 14.304 80.4559 14.304C80.6692 14.304 80.8825 14.3253 81.0959 14.368C81.3199 14.4 81.5065 14.4427 81.6559 14.496V15.472H80.8239C80.3012 15.472 80.0399 15.728 80.0399 16.24V17.584H81.6559V18.752H80.0399V26H78.6319V18.752ZM86.157 26.192C84.8663 26.192 83.8957 25.8347 83.245 25.12C82.5943 24.3947 82.269 23.2853 82.269 21.792C82.269 20.2987 82.5943 19.1947 83.245 18.48C83.8957 17.7547 84.8663 17.392 86.157 17.392C87.4477 17.392 88.4183 17.7547 89.069 18.48C89.7197 19.1947 90.045 20.2987 90.045 21.792C90.045 23.2853 89.7197 24.3947 89.069 25.12C88.4183 25.8347 87.4477 26.192 86.157 26.192ZM86.157 25.024C87.0103 25.024 87.629 24.7787 88.013 24.288C88.397 23.7867 88.589 22.976 88.589 21.856V21.728C88.589 20.608 88.397 19.8027 88.013 19.312C87.629 18.8107 87.0103 18.56 86.157 18.56C85.3037 18.56 84.685 18.8107 84.301 19.312C83.917 19.8027 83.725 20.608 83.725 21.728V21.856C83.725 22.976 83.917 23.7867 84.301 24.288C84.685 24.7787 85.3037 25.024 86.157 25.024ZM91.6716 17.584H92.7436L92.9036 18.848H92.9996C93.1596 18.432 93.3996 18.0853 93.7196 17.808C94.0396 17.5307 94.4609 17.392 94.9836 17.392C95.1649 17.392 95.3249 17.4133 95.4636 17.456C95.6129 17.488 95.7036 17.5093 95.7356 17.52V18.88H95.1436C94.5463 18.88 94.0503 19.056 93.6556 19.408C93.2716 19.7493 93.0796 20.288 93.0796 21.024V26H91.6716V17.584ZM101.645 15.024H109.421V16.352H103.165V19.84H108.845V21.168H103.165V26H101.645V15.024ZM111.234 14.432H112.642V16H111.234V14.432ZM111.234 17.584H112.642V26H111.234V17.584ZM116.285 28.912C115.666 28.912 115.128 28.752 114.669 28.432C114.221 28.1227 113.997 27.6053 113.997 26.88C113.997 26.0053 114.45 25.408 115.357 25.088C115.101 24.9493 114.888 24.7733 114.717 24.56C114.557 24.336 114.477 24.08 114.477 23.792C114.477 23.376 114.621 23.0613 114.909 22.848C115.208 22.6347 115.533 22.4853 115.885 22.4C115.533 22.144 115.256 21.8293 115.053 21.456C114.85 21.0827 114.749 20.672 114.749 20.224C114.749 19.328 115.053 18.6347 115.661 18.144C116.269 17.6427 117.101 17.392 118.157 17.392C118.744 17.392 119.277 17.488 119.757 17.68C120.45 17.3493 120.856 16.864 120.973 16.224H122.317C122.317 16.7253 122.168 17.1573 121.869 17.52C121.581 17.8827 121.186 18.1227 120.685 18.24C121.282 18.7733 121.581 19.4347 121.581 20.224C121.581 21.12 121.272 21.8187 120.653 22.32C120.045 22.8107 119.213 23.056 118.157 23.056H116.813C116.525 23.056 116.301 23.12 116.141 23.248C115.992 23.376 115.917 23.5413 115.917 23.744C115.917 23.9467 115.992 24.112 116.141 24.24C116.301 24.368 116.525 24.432 116.813 24.432H120.189C120.85 24.432 121.373 24.6347 121.757 25.04C122.141 25.4347 122.333 25.9147 122.333 26.48C122.333 26.8853 122.242 27.2747 122.061 27.648C121.88 28.0213 121.586 28.3253 121.181 28.56C120.786 28.7947 120.285 28.912 119.677 28.912H116.285ZM118.173 21.968C118.834 21.968 119.336 21.8187 119.677 21.52C120.018 21.2107 120.189 20.7787 120.189 20.224C120.189 19.6693 120.018 19.2427 119.677 18.944C119.336 18.6347 118.834 18.48 118.173 18.48C117.512 18.48 117.01 18.6347 116.669 18.944C116.328 19.2427 116.157 19.6693 116.157 20.224C116.157 20.7787 116.328 21.2107 116.669 21.52C117.01 21.8187 117.512 21.968 118.173 21.968ZM119.709 27.776C120.061 27.776 120.354 27.68 120.589 27.488C120.824 27.296 120.941 27.04 120.941 26.72C120.941 26.4 120.845 26.1493 120.653 25.968C120.472 25.776 120.226 25.68 119.917 25.68H116.413C116.104 25.68 115.858 25.776 115.677 25.968C115.496 26.1493 115.405 26.4 115.405 26.72C115.405 27.04 115.496 27.296 115.677 27.488C115.858 27.68 116.104 27.776 116.413 27.776H119.709ZM123.672 17.584H124.744L124.904 18.72H125.016C125.592 17.8347 126.434 17.392 127.544 17.392C128.632 17.392 129.357 17.8347 129.72 18.72H129.816C130.104 18.2933 130.477 17.968 130.936 17.744C131.405 17.5093 131.901 17.392 132.424 17.392C134.077 17.392 134.904 18.24 134.904 19.936V26H133.496V20.192C133.496 19.584 133.362 19.1627 133.096 18.928C132.829 18.6827 132.461 18.56 131.992 18.56C131.426 18.56 130.952 18.784 130.568 19.232C130.184 19.68 129.992 20.2773 129.992 21.024V26H128.584V20.192C128.584 19.584 128.456 19.1627 128.2 18.928C127.944 18.6827 127.581 18.56 127.112 18.56C126.749 18.56 126.413 18.6613 126.104 18.864C125.794 19.056 125.544 19.3387 125.352 19.712C125.17 20.0853 125.08 20.5227 125.08 21.024V26H123.672V17.584ZM139.288 26.192C138.562 26.192 137.917 26.0213 137.352 25.68C136.786 25.3387 136.504 24.72 136.504 23.824C136.504 22.7467 136.984 22.0107 137.944 21.616C138.904 21.2107 140.29 21.008 142.104 21.008V20.08C142.104 19.5893 141.965 19.216 141.688 18.96C141.41 18.6933 140.909 18.56 140.184 18.56C139.501 18.56 139.01 18.688 138.712 18.944C138.424 19.2 138.28 19.5147 138.28 19.888V20.08H136.92C136.909 20.016 136.904 19.8987 136.904 19.728C136.904 18.9813 137.213 18.4053 137.832 18C138.45 17.5947 139.277 17.392 140.312 17.392C141.357 17.392 142.152 17.6107 142.696 18.048C143.24 18.4853 143.512 19.104 143.512 19.904V24.464C143.512 24.656 143.565 24.8 143.672 24.896C143.778 24.9813 143.912 25.024 144.072 25.024H144.712V25.936C144.434 26.064 144.072 26.128 143.624 26.128C143.261 26.128 142.957 26.0213 142.712 25.808C142.466 25.584 142.301 25.2907 142.216 24.928H142.104C141.816 25.3227 141.421 25.632 140.92 25.856C140.429 26.08 139.885 26.192 139.288 26.192ZM139.656 25.024C140.072 25.024 140.466 24.9387 140.84 24.768C141.213 24.5973 141.517 24.3467 141.752 24.016C141.986 23.6747 142.104 23.264 142.104 22.784V22.176C140.728 22.176 139.693 22.288 139 22.512C138.317 22.7253 137.976 23.136 137.976 23.744C137.976 24.2027 138.114 24.5333 138.392 24.736C138.68 24.928 139.101 25.024 139.656 25.024Z" transform="translate(58 2)" fill="black"/>
</g>
<defs>
<clipPath id="clip0">
<rect width="270" height="34" fill="white"/>
</clipPath>
</defs>
</svg>
